<svg xmlns="http://www.w3.org/2000/svg" shape-rendering="crispEdges" viewBox="0 -0.5 32 32" width="32" height="32"><metadata>Generated with pixel-perfect-svg https://github.com/kagof/pixel-perfect-svg</metadata><path stroke="#361a0a" d="M12,0h2M7,1h1M11,1h1M13,1h1M16,1h2M22,1h2M6,2h1M8,2h1M11,2h1M13,2h1M16,2h1M18,2h1M21,2h1M23,2h1M4,3h1M6,3h1M9,3h1M11,3h1M13,3h1M16,3h1M18,3h1M20,3h1M22,3h1M3,4h1M5,4h1M7,4h1M9,4h1M11,4h1M14,4h1M16,4h1M18,4h1M20,4h1M22,4h1M26,4h1M3,5h1M6,5h1M9,5h1M11,5h1M15,5h1M19,5h1M23,5h1M25,5h1M27,5h1M3,6h1M6,6h1M9,6h1M11,6h1M22,6h1M25,6h1M27,6h1M3,7h1M10,7h1M22,7h1M24,7h1M27,7h1M4,8h1M22,8h2M26,8h1M4,9h1M25,9h1M3,10h1M25,10h1M27,10h2M4,11h1M26,11h1M28,11h1M4,12h1M28,12h1M4,13h1M27,13h1M5,14h1M26,14h1M5,15h1M26,15h1M5,16h1M26,16h1M5,17h1M26,17h1M5,18h1M26,18h1M5,19h1M26,19h1M5,20h1M26,20h1M6,21h1M25,21h1M6,22h1M25,22h1M6,23h1M25,23h1M7,24h1M24,24h1M7,25h1M24,25h1M7,26h1M24,26h1M7,27h1M24,27h1M7,28h1M24,28h1M8,29h1M23,29h1M9,30h2M21,30h2M11,31h10"/><path stroke="#ddcf4b" d="M12,1h1M7,2h1M17,2h1M22,2h1M4,4h1M4,5h2M26,5h1M20,7h1M10,8h2M14,8h2M20,8h2M10,9h2M15,9h1M23,9h1M4,10h1M6,10h1M22,10h2M6,11h2M9,11h1M22,11h1M27,11h1M13,12h2M22,12h1M13,13h2M18,13h2M17,14h2"/><path stroke="#e49c19" d="M12,2h1M8,3h1M17,3h1M21,3h1M13,4h1M17,4h1M21,4h1M13,5h2M16,5h2M20,5h1M4,6h1M8,6h1M13,6h2M16,6h1M19,6h2M26,6h1M4,7h1M8,7h2M11,7h1M14,7h1M16,7h1M19,7h1M25,7h2M5,8h1M7,8h3M12,8h1M16,8h1M19,8h1M25,8h1M5,9h1M8,9h2M16,9h1M19,9h1M21,9h2M5,10h1M8,10h1M11,10h1M13,10h1M16,10h1M18,10h2M21,10h1M5,11h1M8,11h1M11,11h1M13,11h2M16,11h1M18,11h2M21,11h1M25,11h1M5,12h1M7,12h3M11,12h1M16,12h1M18,12h2M25,12h1M27,12h1M5,13h1M7,13h3M11,13h1M16,13h1M22,13h1M25,13h1M8,14h4M13,14h2M16,14h1M20,14h1M22,14h2M10,15h2M13,15h2M17,15h2M20,15h1M13,16h2M17,16h2"/><path stroke="#cf7819" d="M7,3h1M12,3h1M8,4h1M12,4h1M7,5h2M12,5h1M18,5h1M21,5h2M5,6h1M7,6h1M12,6h1M15,6h1M17,6h2M21,6h1M5,7h3M12,7h2M15,7h1M17,7h2M21,7h1M6,8h1M13,8h1M17,8h2M24,8h1M6,9h2M12,9h3M17,9h2M20,9h1M24,9h1M7,10h1M9,10h2M12,10h1M14,10h2M17,10h1M20,10h1M24,10h1M10,11h1M12,11h1M15,11h1M17,11h1M20,11h1M23,11h2M6,12h1M10,12h1M12,12h1M15,12h1M17,12h1M20,12h2M23,12h2M26,12h1M6,13h1M10,13h1M12,13h1M15,13h1M17,13h1M20,13h2M23,13h2M26,13h1M12,14h1M15,14h1M19,14h1M21,14h1M12,15h1M15,15h2M19,15h1M21,15h1M12,16h1M15,16h2M19,16h1"/><path stroke="#c33f33" d="M6,14h1M6,15h1M12,17h6M12,18h6"/><path stroke="#c84b41" d="M7,14h1M7,15h3M8,16h4M10,17h2"/><path stroke="#a22421" d="M24,14h1M22,15h3M21,16h3M21,17h1"/><path stroke="#ba2b1e" d="M25,14h1M25,15h1M20,16h1M18,17h3M18,18h2"/><path stroke="#bb2d2c" d="M6,16h2M6,17h2M6,18h2M6,19h2M12,19h6M6,20h3M12,20h6M7,21h2M12,21h6M7,22h2M12,22h6M7,23h3M12,23h6M8,24h2M13,24h5M8,25h3M13,25h4M8,26h3M13,26h4M8,27h3M13,27h3M8,28h4M14,28h2M9,29h6M11,30h3"/><path stroke="#8f0b0c" d="M24,16h1M22,17h3M21,18h4M21,19h4M20,20h5M20,21h4M20,22h4M20,23h4M20,24h3M20,25h3M19,26h4M19,27h3M18,28h4M18,29h3M17,30h4"/><path stroke="#b21715" d="M25,16h1M25,17h1M20,18h1M25,18h1M18,19h3M25,19h1M18,20h2M25,20h1M18,21h2M24,21h1M18,22h2M24,22h1M18,23h2M24,23h1M18,24h2M23,24h1M17,25h3M23,25h1M17,26h2M23,26h1M16,27h3M22,27h2M16,28h2M22,28h2M15,29h3M21,29h2M14,30h3"/><path stroke="#c13b39" d="M8,17h2M8,18h4M8,19h4M9,20h3M9,21h3M9,22h3M10,23h2M10,24h3M11,25h2M11,26h2M11,27h2M12,28h2"/></svg>
