<svg xmlns="http://www.w3.org/2000/svg" shape-rendering="crispEdges" viewBox="0 -0.5 32 32" width="32" height="32"><metadata>Generated with pixel-perfect-svg https://github.com/kagof/pixel-perfect-svg</metadata><path stroke="#361a0a" d="M12,0h8M9,1h3M20,1h3M7,2h2M23,2h2M6,3h1M25,3h1M5,4h1M26,4h1M4,5h1M27,5h1M3,6h1M28,6h1M2,7h1M29,7h1M2,8h1M29,8h1M1,9h1M30,9h1M1,10h1M30,10h1M1,11h1M30,11h1M0,12h1M31,12h1M0,13h1M31,13h1M0,14h1M31,14h1M0,15h1M31,15h1M0,16h1M31,16h1M0,17h1M31,17h1M0,18h1M31,18h1M0,19h1M31,19h1M1,20h1M30,20h1M1,21h1M30,21h1M1,22h1M30,22h1M2,23h1M29,23h1M2,24h1M29,24h1M3,25h1M28,25h1M4,26h1M27,26h1M5,27h1M26,27h1M6,28h1M25,28h1M7,29h2M23,29h2M9,30h3M20,30h3M12,31h8"/><path stroke="#d57e2c" d="M12,1h8M9,2h3M7,3h2M6,4h1M5,5h1M4,6h1M3,7h1M3,8h1M2,9h1M28,9h1M2,10h1M28,10h1M2,11h1M28,11h1M29,12h1M8,27h1M9,28h1"/><path stroke="#cc762d" d="M12,2h1M19,2h4M9,3h1M19,3h6M7,4h1M22,4h4M6,5h1M24,5h3M5,6h1M25,6h3M4,7h1M26,7h3M4,8h1M27,8h2M3,9h1M29,9h1M3,10h1M29,10h1M3,11h1M29,11h1M1,12h2M30,12h1M1,13h2M30,13h1M1,14h2M30,14h1M1,15h2M30,15h1M1,16h2M30,16h1M1,17h2M30,17h1M1,18h2M30,18h1M1,19h2M29,19h2M2,20h1M29,20h1M2,21h1M29,21h1M2,22h2M28,22h2M3,23h1M28,23h1M3,24h2M27,24h2M4,25h2M26,25h2M5,26h2M25,26h2M6,27h2M23,27h3M7,28h2M20,28h5M9,29h3M19,29h4M12,30h8"/><path stroke="#bc6328" d="M13,2h6M10,3h3M8,4h2M7,5h1M6,6h1M5,7h1M29,13h1M29,14h1M29,15h1M29,16h1M29,17h1M29,18h1M3,19h1M28,19h1M3,20h1M28,20h1M3,21h1M28,21h1M4,22h1M27,22h1M4,23h1M27,23h1M5,24h1M26,24h1M6,25h1M25,25h1M7,26h1M24,26h1M10,28h2M12,29h7"/><path stroke="#eeac2b" d="M13,3h6M10,4h3M19,4h3M8,5h2M14,5h4M22,5h2M7,6h1M17,6h1M24,6h1M6,7h1M12,7h1M25,7h1M5,8h1M12,8h1M20,8h2M26,8h1M4,9h1M12,9h1M14,9h4M20,9h2M27,9h1M4,10h1M11,10h2M14,10h1M16,10h3M21,10h3M27,10h1M4,11h1M8,11h5M16,11h3M22,11h3M3,12h1M7,12h4M16,12h3M22,12h3M3,13h1M8,13h2M15,13h3M21,13h1M3,14h1M12,14h4M21,14h1M3,15h1M24,15h1M3,16h1M19,16h1M23,16h2M3,17h1M8,17h2M24,17h1M3,18h1M8,18h2M15,18h2M23,18h2M4,19h1M9,19h2M13,19h4M19,19h6M4,20h1M9,20h3M19,20h5M4,21h1M10,21h3M19,21h2M5,22h1M13,22h1M18,22h2M5,23h1M15,23h4M6,24h1M7,25h1M15,25h2M8,26h1M14,26h3M9,27h3M17,27h1"/><path stroke="#f1be30" d="M13,4h4M10,5h4M21,5h1M8,6h1M12,6h3M22,6h2M7,7h2M11,7h1M13,7h1M17,7h1M24,7h1M6,8h2M25,8h1M5,9h2M18,9h1M26,9h1M5,10h2M13,10h1M15,10h1M19,10h2M24,10h1M26,10h1M5,11h1M7,11h1M27,11h1M4,12h2M11,12h1M28,12h1M4,13h1M11,13h1M18,13h1M24,13h1M28,13h1M4,14h1M8,14h2M11,14h1M16,14h5M24,14h1M28,14h1M4,15h1M7,15h2M14,15h2M19,15h2M27,15h2M4,16h1M7,16h3M20,16h1M26,16h3M4,17h1M7,17h1M19,17h2M28,17h1M4,18h1M10,18h1M13,18h1M19,18h2M28,18h1M5,19h1M11,19h2M17,19h2M5,20h1M12,20h2M17,20h2M24,20h2M5,21h1M17,21h2M24,21h4M6,22h1M11,22h2M17,22h1M24,22h3M6,23h3M11,23h1M24,23h3M7,24h5M15,24h3M23,24h3M8,25h5M22,25h3M9,26h5M20,26h4M12,27h5M18,27h5M12,28h8"/><path stroke="#f6d656" d="M17,4h2M20,5h1M9,6h3M21,6h1M21,7h1M13,8h1M17,8h3M7,9h1M13,9h1M19,9h1M25,9h1M7,10h2M25,10h1M6,11h1M25,11h2M6,12h1M12,12h1M10,13h1M12,13h1M22,13h2M10,14h1M22,14h2M9,15h2M16,15h1M22,15h2M25,15h2M5,16h2M10,16h1M14,16h2M25,16h1M5,17h2M14,17h2M25,17h1M5,18h3M14,18h1M9,21h1M23,21h1M9,22h2M9,23h2M19,23h1M23,23h1M19,24h4M20,25h2"/><path stroke="#ca331c" d="M18,5h2M16,6h1M18,6h1M20,6h1M9,7h1M16,7h1M18,7h3M22,7h2M9,8h1M11,8h1M23,8h2M10,9h2M24,9h1M10,10h1M13,11h3M21,11h1M14,12h2M20,12h2M25,12h3M7,13h1M14,13h1M27,13h1M6,14h2M26,14h2M6,15h1M11,15h2M17,15h2M21,15h1M11,16h2M16,16h2M22,16h1M12,17h2M17,17h2M22,17h1M26,17h2M18,18h1M22,18h1M26,18h1M7,19h2M25,19h1M27,19h1M8,20h1M14,20h3M13,21h2M16,21h1M21,21h1M8,22h1M14,22h1M16,22h1M21,22h1M23,22h1M13,23h1M22,23h1M14,24h1M18,24h1M14,25h1M18,25h2"/><path stroke="#e25233" d="M15,6h1M19,6h1M10,7h1M15,7h1M10,8h1M20,11h1M6,13h1M26,13h1M13,15h1M13,16h1M18,16h1M23,17h1M27,18h1M7,20h1M8,21h1M15,21h1M22,21h1M15,22h1M22,22h1M14,23h1"/><path stroke="#b12219" d="M14,7h1M8,8h1M14,8h3M22,8h1M8,9h2M22,9h2M9,10h1M19,11h1M13,12h1M19,12h1M5,13h1M13,13h1M19,13h2M25,13h1M5,14h1M25,14h1M5,15h1M21,16h1M10,17h2M16,17h1M21,17h1M11,18h2M17,18h1M21,18h1M25,18h1M6,19h1M26,19h1M6,20h1M26,20h2M6,21h2M7,22h1M20,22h1M12,23h1M20,23h2M12,24h2M13,25h1M17,25h1M17,26h3"/></svg>
