<svg xmlns="http://www.w3.org/2000/svg" shape-rendering="crispEdges" viewBox="0 -0.5 32 32" width="32" height="32"><metadata>Generated with pixel-perfect-svg https://github.com/kagof/pixel-perfect-svg</metadata><path stroke="#361a0a" d="M15,0h2M14,1h1M17,1h1M11,2h2M14,2h1M18,2h2M21,2h2M10,3h1M13,3h1M20,3h1M23,3h1M8,4h2M23,4h1M7,5h1M24,5h1M6,6h1M25,6h1M6,7h1M25,7h1M5,8h1M26,8h1M5,9h1M26,9h1M5,10h1M26,10h1M6,11h1M25,11h1M6,12h1M25,12h1M6,13h1M25,13h1M6,14h1M25,14h1M6,15h1M25,15h1M7,16h1M24,16h1M7,17h1M24,17h1M7,18h1M24,18h1M7,19h1M24,19h1M7,20h1M24,20h1M7,21h1M24,21h1M8,22h1M23,22h1M8,23h1M23,23h1M8,24h1M23,24h1M8,25h1M23,25h1M8,26h1M23,26h1M9,27h1M22,27h1M9,28h1M22,28h1M9,29h1M22,29h1M10,30h1M21,30h1M11,31h10"/><path stroke="#ffe38b" d="M15,1h2M15,2h1M12,3h1M18,3h1M22,3h1M12,4h2M17,4h1M8,5h1M10,5h1M13,5h1M20,5h1M23,5h1M7,6h1M11,6h1M14,6h5M21,6h3M7,7h1M11,7h1M18,7h1M22,7h1M8,8h1M11,8h1M13,8h3M20,8h3M25,8h1M8,9h1M11,9h2M15,9h1M20,9h1M25,9h1M8,10h3M16,10h2M21,10h1M23,10h2M9,11h4M17,11h6M12,12h8"/><path stroke="#eaa24c" d="M16,2h1M17,3h1M19,3h1M14,4h1M20,4h1M15,5h2M22,5h1M12,6h1M19,6h1M9,7h1M12,7h1M15,7h1M17,7h1M19,7h3M10,8h1M24,8h1M6,9h1M13,9h1M17,9h1M21,9h1M24,9h1M7,10h1M13,10h2M18,10h1M22,10h1M14,11h1"/><path stroke="#f5c46e" d="M17,2h1M11,3h1M14,3h3M21,3h1M10,4h2M15,4h2M21,4h2M11,5h2M17,5h1M19,5h1M21,5h1M9,6h2M13,6h1M20,6h1M10,7h1M13,7h2M16,7h1M6,8h2M9,8h1M12,8h1M16,8h3M23,8h1M7,9h1M9,9h2M14,9h1M16,9h1M18,9h1M22,9h2M11,10h1M15,10h1M19,10h1M15,11h2"/><path stroke="#fff69e" d="M18,4h2M9,5h1M14,5h1M18,5h1M8,6h1M24,6h1M8,7h1M23,7h2M19,8h1M19,9h1M12,10h1M20,10h1M13,11h1"/><path stroke="#fffeff" d="M6,10h1M7,11h2M8,12h2M9,13h1M12,13h2M19,13h1M9,14h1M13,14h2M17,14h2M9,15h1M13,15h2M17,15h2M13,16h2M17,16h1M13,17h2M17,17h1M10,18h1M13,18h2M17,18h1M10,19h1M13,19h2M17,19h1M10,20h1M13,20h2M17,20h1M10,21h1M13,21h2M17,21h1M14,22h1M17,22h1M14,23h1M17,23h1M14,24h1M17,24h1M14,25h1M17,25h1M17,26h1M17,27h1"/><path stroke="#d7cad8" d="M25,10h1M23,11h2M10,12h2M20,12h4M8,13h1M14,13h5M22,13h2M8,14h1M22,14h2M8,15h1M22,15h2M9,16h1M18,16h1M22,16h1M9,17h1M18,17h1M22,17h1M9,18h1M18,18h1M21,18h2M9,19h1M18,19h1M21,19h2M9,20h1M18,20h1M21,20h2M9,21h1M18,21h1M21,21h2M10,22h1M13,22h1M18,22h1M21,22h1M10,23h1M13,23h1M18,23h1M21,23h1M10,24h1M13,24h1M18,24h1M21,24h1M10,25h1M13,25h1M18,25h1M21,25h1M10,26h1M13,26h2M18,26h1M21,26h1M11,27h1M13,27h2M18,27h1M20,27h1M11,28h1M13,28h2M17,28h2M20,28h1M11,29h1M13,29h2M17,29h2M20,29h1M11,30h1M13,30h2M17,30h2M20,30h1"/><path stroke="#c42929" d="M7,12h1M7,13h1M11,13h1M20,13h1M7,14h1M11,14h1M16,14h1M20,14h1M7,15h1M11,15h1M16,15h1M19,15h2M11,16h1M16,16h1M20,16h1M11,17h1M16,17h1M20,17h1M16,18h1M19,18h1M12,19h1M16,19h1M19,19h1M12,20h1M16,20h1M19,20h1M12,21h1M16,21h1M19,21h1M12,22h1M16,22h1M19,22h1M12,23h1M16,23h1M19,23h1M12,24h1M16,24h1M19,24h1M12,25h1M16,25h1M19,25h1M9,26h1M12,26h1M15,26h2M19,26h2M16,27h1M19,27h1M15,28h2M19,28h1M16,29h1M19,29h1M15,30h2M19,30h1"/><path stroke="#ac222f" d="M24,12h1M10,13h1M21,13h1M24,13h1M10,14h1M21,14h1M24,14h1M10,15h1M21,15h1M24,15h1M8,16h1M10,16h1M21,16h1M23,16h1M8,17h1M10,17h1M21,17h1M23,17h1M8,18h1M11,18h1M20,18h1M23,18h1M8,19h1M11,19h1M20,19h1M23,19h1M8,20h1M11,20h1M20,20h1M23,20h1M8,21h1M11,21h1M20,21h1M23,21h1M9,22h1M11,22h1M20,22h1M22,22h1M9,23h1M11,23h1M20,23h1M22,23h1M9,24h1M11,24h1M20,24h1M22,24h1M9,25h1M11,25h1M20,25h1M22,25h1M11,26h1M22,26h1M10,27h1M12,27h1M21,27h1M10,28h1M12,28h1M21,28h1M10,29h1M12,29h1M21,29h1M12,30h1"/><path stroke="#de4b3b" d="M12,14h1M15,14h1M19,14h1M12,15h1M15,15h1M12,16h1M15,16h1M19,16h1M12,17h1M15,17h1M19,17h1M12,18h1M15,18h1M15,19h1M15,20h1M15,21h1M15,22h1M15,23h1M15,24h1M15,25h1M15,27h1M15,29h1"/></svg>
