<svg xmlns="http://www.w3.org/2000/svg" shape-rendering="crispEdges" viewBox="0 -0.5 32 32" width="32" height="32"><metadata>Generated with pixel-perfect-svg https://github.com/kagof/pixel-perfect-svg</metadata><path stroke="#361a0a" d="M13,1h7M10,2h3M20,2h3M8,3h2M23,3h2M6,4h2M25,4h1M5,5h1M26,5h1M4,6h1M27,6h2M3,7h1M29,7h1M2,8h1M30,8h1M2,9h1M30,9h1M1,10h1M29,10h1M1,11h1M30,11h1M1,12h1M30,12h1M1,13h1M30,13h1M1,14h1M30,14h1M1,15h1M30,15h1M1,16h1M30,16h1M1,17h1M29,17h1M1,18h1M29,18h1M1,19h1M29,19h1M2,20h1M29,20h1M2,21h1M28,21h1M2,22h1M28,22h1M3,23h1M28,23h1M4,24h2M27,24h1M6,25h1M27,25h1M5,26h1M26,26h1M5,27h1M25,27h1M6,28h1M23,28h2M7,29h3M20,29h3M10,30h10"/><path stroke="#eceedf" d="M13,2h2M10,3h9M8,4h4M14,4h7M7,5h1M10,5h3M16,5h4M21,5h2M6,6h1M11,6h2M17,6h2M23,6h2M5,7h1M10,7h4M19,7h1M24,7h2M9,8h7M19,8h3M24,8h2M4,9h1M8,9h1M10,9h1M13,9h6M21,9h2M24,9h1M27,9h2M8,10h1M22,10h1M24,10h1M27,10h2M7,11h1M23,11h2M27,11h3M3,12h2M6,12h1M23,12h2M28,12h2M3,13h4M24,13h1M29,13h1M2,14h1M5,14h2M8,14h1M22,14h1M24,14h2M29,14h1M2,15h1M5,15h2M8,15h1M22,15h5M28,15h2M2,16h3M6,16h3M22,16h8M2,17h1M6,17h3M22,17h2M27,17h2M2,18h1M6,18h3M22,18h2M27,18h2M3,19h1M7,19h1M23,19h1M27,19h2M4,20h2M7,20h1M23,20h1M27,20h2M5,21h4M22,21h2M6,22h4M21,22h2M26,22h1M7,23h3M11,23h5M20,23h1M23,23h4M8,24h3M13,24h8M23,24h3M8,25h2M16,25h1M18,25h2M24,25h1M9,26h2M17,26h2M23,26h1M10,27h2M16,27h3M21,27h1M12,28h3M17,28h1M19,28h2M14,29h3M18,29h2"/><path stroke="#dddac4" d="M15,2h5M19,3h4M12,4h2M21,4h4M6,5h1M13,5h1M23,5h3M5,6h1M15,6h1M25,6h2M4,7h1M18,7h1M26,7h3M3,8h2M27,8h3M3,9h1M29,9h1M2,10h2M2,11h2M2,12h1M2,13h1M22,13h2M23,14h1M2,19h1M22,19h1M3,20h1M21,20h2M3,21h2M20,21h2M27,21h1M3,22h3M19,22h2M27,22h1M4,23h3M16,23h1M18,23h2M27,23h1M6,24h2M26,24h1M7,25h1M25,25h2M6,26h3M24,26h2M6,27h4M22,27h3M7,28h5M21,28h2M10,29h4"/><path stroke="#f5f9f2" d="M8,5h2M7,6h2M13,6h2M22,6h1M6,7h1M14,7h2M23,7h1M5,8h1M16,8h3M23,8h1M9,9h1M11,9h2M4,10h1M9,10h3M23,10h1M4,11h1M8,11h3M5,12h1M7,12h3M25,12h1M7,13h2M25,13h2M7,14h1M26,14h3M7,15h1M27,15h1M24,17h1M24,18h1M24,19h1M24,20h1M24,21h1M23,22h1M10,23h1M21,23h1M11,24h2M21,24h1M12,25h4M20,25h1M14,26h1M19,26h1M19,27h1M15,28h2M18,28h1M17,29h1"/><path stroke="#d6d7d2" d="M14,5h2M9,6h2M16,6h1M19,6h1M8,7h2M16,7h2M20,7h1M8,8h1M26,8h1M7,9h1M19,9h2M25,9h2M6,10h2M20,10h2M25,10h2M6,11h1M21,11h2M25,11h2M22,12h1M26,12h2M27,13h2M3,14h2M3,15h2M5,16h1M3,17h3M25,17h2M3,18h3M25,18h2M4,19h3M8,19h1M21,19h1M25,19h2M6,20h1M8,20h2M20,20h1M25,20h2M9,21h2M18,21h2M25,21h2M10,22h9M24,22h2M17,23h1M22,23h1M22,24h1M10,25h2M17,25h1M21,25h3M11,26h3M15,26h2M20,26h3M12,27h4M20,27h1"/><path stroke="#ffffff" d="M20,5h1M20,6h2M7,7h1M21,7h2M6,8h2M22,8h1M5,9h2M23,9h1M5,10h1M5,11h1"/><path stroke="#ffd656" d="M12,10h2M11,11h3M11,12h1"/><path stroke="#ffad00" d="M14,10h2M16,11h3M16,12h3M15,13h4M13,14h4M10,15h6M10,16h2"/><path stroke="#ffb500" d="M16,10h3"/><path stroke="#ff9600" d="M19,10h1M19,11h2M19,12h3M20,13h1"/><path stroke="#ffd57f" d="M14,11h2M14,12h2M13,13h2M11,14h2"/><path stroke="#ffcc30" d="M10,12h1M9,13h2M9,14h2M9,15h1"/><path stroke="#ffe49e" d="M12,12h2M11,13h2"/><path stroke="#ffa000" d="M19,13h1M17,14h4M16,15h5M9,16h1M12,16h7M10,17h8M10,18h5M11,19h4"/><path stroke="#ff7400" d="M21,13h1M21,14h1M21,15h1M19,16h3M9,17h1M18,17h4M9,18h1M15,18h7M9,19h2M15,19h6M10,20h10M11,21h7"/></svg>
