<svg xmlns="http://www.w3.org/2000/svg" shape-rendering="crispEdges" viewBox="0 -0.5 32 32" width="32" height="32"><metadata>Generated with pixel-perfect-svg https://github.com/kagof/pixel-perfect-svg</metadata><path stroke="#361a0a" d="M14,0h4M13,1h1M18,1h1M13,2h1M18,2h1M14,3h1M17,3h1M13,4h1M18,4h1M13,5h1M18,5h1M13,6h1M18,6h1M13,7h1M18,7h1M13,8h1M18,8h1M13,9h1M18,9h1M13,10h1M18,10h1M13,11h1M18,11h1M12,12h1M19,12h1M12,13h1M19,13h1M11,14h1M20,14h1M11,15h1M20,15h1M11,16h1M20,16h1M11,17h1M20,17h1M11,18h1M20,18h1M11,19h1M20,19h1M11,20h1M20,20h1M11,21h1M20,21h1M11,22h1M20,22h1M11,23h1M20,23h1M11,24h1M20,24h1M11,25h1M20,25h1M11,26h1M20,26h1M11,27h1M20,27h1M11,28h1M20,28h1M11,29h1M20,29h1M12,30h1M19,30h1M13,31h6"/><path stroke="#81ab8d" d="M14,1h4"/><path stroke="#003b00" d="M14,2h4"/><path stroke="#74a536" d="M15,3h2"/><path stroke="#7fab00" d="M14,4h1M13,18h1M13,19h1M12,20h1M13,24h1M13,25h1M12,26h1M14,26h1M12,27h2M12,28h3M12,29h2"/><path stroke="#ccd83f" d="M15,4h2M16,8h1M16,9h1M16,10h1M15,11h2M17,13h2M16,14h3M15,15h4M18,16h1M14,17h4M14,18h1M17,18h2M18,19h1M18,20h1M18,23h1M18,24h1M18,25h1M15,26h3M18,27h1M15,28h4"/><path stroke="#468800" d="M17,4h1M17,8h1M17,9h1M17,10h1M17,11h1M19,14h1M19,15h1M19,16h1M19,17h1M19,20h1M19,26h1M19,27h1M19,28h1M19,29h1"/><path stroke="#9ec045" d="M14,5h1M14,6h1M14,7h1"/><path stroke="#afcd79" d="M15,5h1M17,5h1M15,6h1M17,6h1M15,7h1M17,7h1"/><path stroke="#f6f2ff" d="M16,5h1M16,6h1M15,18h2M14,19h1"/><path stroke="#c9e0c4" d="M16,7h1"/><path stroke="#98b719" d="M14,8h1M14,9h1"/><path stroke="#d8db56" d="M15,8h1M15,9h1M15,10h1M15,14h1M14,15h1M13,20h1M13,23h1"/><path stroke="#8ab100" d="M14,10h1M14,11h1M13,12h6M13,13h4M12,14h3M12,15h2M12,16h2M12,17h1"/><path stroke="#d6ed9a" d="M14,16h2M17,16h1M18,17h1M18,26h1M15,27h3"/><path stroke="#dbf5b9" d="M16,16h1"/><path stroke="#b8dc79" d="M13,17h1M12,18h1M12,19h1M12,23h1M12,24h1M12,25h1M13,26h1M14,27h1"/><path stroke="#a6ce84" d="M19,18h1M19,19h1M19,23h1M19,24h1M19,25h1"/><path stroke="#ddfacd" d="M15,19h3M14,20h1M17,20h1"/><path stroke="#d45a56" d="M15,20h2M15,23h2M15,24h2"/><path stroke="#6c6d5e" d="M12,21h1M19,21h1M12,22h1M19,22h1"/><path stroke="#9e9b86" d="M13,21h2M16,22h1"/><path stroke="#7f7f74" d="M15,21h4M13,22h3M17,22h2"/><path stroke="#cce5c2" d="M14,23h1M14,24h1M14,25h2"/><path stroke="#f1ebff" d="M17,23h1M17,24h1M16,25h2"/><path stroke="#144500" d="M14,29h4M13,30h6"/><path stroke="#c1d230" d="M18,29h1"/></svg>
