<svg xmlns="http://www.w3.org/2000/svg" shape-rendering="crispEdges" viewBox="0 -0.5 32 32" width="32" height="32"><metadata>Generated with pixel-perfect-svg https://github.com/kagof/pixel-perfect-svg</metadata><path stroke="#361a0a" d="M19,2h5M18,3h1M24,3h6M17,4h1M30,4h1M16,5h1M30,5h1M15,6h1M31,6h1M14,7h1M31,7h1M13,8h1M31,8h1M12,9h1M31,9h1M11,10h1M31,10h1M10,11h1M31,11h1M8,12h2M30,12h1M6,13h2M30,13h1M5,14h1M29,14h1M4,15h1M29,15h1M3,16h1M28,16h1M1,17h2M27,17h1M0,18h1M26,18h1M0,19h1M25,19h1M0,20h1M24,20h1M0,21h1M23,21h1M0,22h1M22,22h1M1,23h1M21,23h1M1,24h1M20,24h1M2,25h1M19,25h1M2,26h1M18,26h1M3,27h1M16,27h2M4,28h1M14,28h2M5,29h9"/><path stroke="#fed499" d="M19,3h2M18,4h1M28,4h1M17,5h1M28,5h1M16,6h1M27,6h2M15,7h1M26,7h1M14,8h1M25,8h1M13,9h1M24,9h1M12,10h1M23,10h1M11,11h1M22,11h1M10,12h1M21,12h1M8,13h2M20,13h1M6,14h2M18,14h2M5,15h1M16,15h2M4,16h1M15,16h1M3,17h1M13,17h2M1,18h2M12,18h1M1,19h1M10,19h2M1,20h1M9,20h1M1,21h1M8,21h1M7,22h1M6,23h1"/><path stroke="#eeb96c" d="M21,3h1M19,4h1M18,5h2M17,6h2M16,7h2M27,7h2M15,8h2M26,8h2M14,9h2M25,9h2M13,10h2M24,10h2M12,11h2M23,11h2M11,12h1M22,12h2M10,13h1M21,13h2M8,14h2M20,14h1M6,15h2M18,15h2M5,16h1M16,16h2M4,17h1M15,17h2M3,18h1M13,18h2M2,19h1M12,19h1M2,20h1M10,20h2M2,21h1M9,21h1M1,22h2M8,22h1M2,23h1M7,23h1M2,24h1M6,24h1M5,25h1M5,26h1M5,27h1M5,28h1"/><path stroke="#cc863c" d="M22,3h1M20,4h2M29,4h1M20,5h1M19,6h2M18,7h2M17,8h2M28,8h1M16,9h2M27,9h2M15,10h2M26,10h2M14,11h2M25,11h3M12,12h3M24,12h4M11,13h1M23,13h4M10,14h1M21,14h3M25,14h1M20,15h5M18,16h6M17,17h6M15,18h5M21,18h1M13,19h8M12,20h8M10,21h9M9,22h7M17,22h1M11,23h6M11,24h2M14,24h1"/><path stroke="#ae692f" d="M23,3h1M22,4h1M21,5h1M30,6h1M30,7h1M19,8h1M30,8h1M18,9h1M30,9h1M30,11h1M15,12h1M29,12h1M29,13h1M11,14h1M28,14h1M8,15h3M28,15h1M6,16h3M27,16h1M5,17h2M26,17h1M4,18h2M25,18h1M3,19h2M24,19h1M3,20h2M23,20h1M3,21h1M22,21h1M3,22h1M21,22h1M3,23h1M20,23h1M3,24h2M19,24h1M3,25h2M18,25h1M3,26h2M16,26h2M4,27h1M14,27h2M6,28h3M10,28h1M12,28h2"/><path stroke="#af300e" d="M23,4h1M26,4h1M22,5h2M24,6h1M21,7h1M22,8h1M19,9h3M17,11h2M16,12h1M14,14h1M8,18h2"/><path stroke="#ffcb0e" d="M24,4h1M25,5h1M20,7h1M23,7h2M20,8h1M18,10h3M16,11h1M13,13h2M9,16h2M7,17h1"/><path stroke="#fb9400" d="M25,4h1M24,5h1M23,8h2M19,11h2M10,17h3M6,19h3M7,20h2"/><path stroke="#a31b06" d="M27,4h1M26,5h2M26,6h1M23,9h1M21,10h1M19,12h2M17,13h2M15,14h2M15,15h1M13,16h2M10,18h2M9,19h1M6,20h1M4,21h1M6,21h2M4,22h3M4,23h2M5,24h1"/><path stroke="#d27a27" d="M29,5h1M29,6h1M29,7h1M29,8h1M29,9h1M28,10h2M29,11h1M28,12h1M27,13h1M27,14h1M25,15h3M24,16h3M23,17h1M25,17h1M22,18h3M21,19h3M20,20h2M19,21h3M18,22h1M20,22h1M8,23h3M17,23h3M7,24h4M15,24h1M17,24h2M6,25h4M11,25h7M6,26h1M8,26h4M13,26h3M6,27h8"/><path stroke="#ffaf00" d="M21,6h2M25,6h1M25,7h1M21,8h1M22,9h1M17,10h1M22,10h1M21,11h1M17,12h2M12,13h1M15,13h2M19,13h1M12,14h2M17,14h1M14,15h1M11,16h2M8,17h1M6,18h1"/><path stroke="#d65a33" d="M23,6h1M22,7h1M11,15h3M9,17h1M7,18h1M5,19h1M5,20h1M5,21h1"/><path stroke="#f5e9c7" d="M30,10h1M28,11h1M28,13h1M24,14h1M26,14h1M24,17h1M20,18h1M22,20h1M16,22h1M19,22h1M13,24h1M16,24h1M10,25h1M7,26h1M12,26h1M9,28h1M11,28h1"/></svg>
