<svg xmlns="http://www.w3.org/2000/svg" shape-rendering="crispEdges" viewBox="0 -0.5 32 32" width="32" height="32"><metadata>Generated with pixel-perfect-svg https://github.com/kagof/pixel-perfect-svg</metadata><path stroke="#361a0a" d="M18,0h3M17,1h1M21,1h1M17,2h1M21,2h1M17,3h1M22,3h1M16,4h1M23,4h1M16,5h1M24,5h1M16,6h1M25,6h1M16,7h1M26,7h1M16,8h1M26,8h1M16,9h1M27,9h1M15,10h1M27,10h1M14,11h1M28,11h1M14,12h1M28,12h1M13,13h1M29,13h1M12,14h1M29,14h1M11,15h1M29,15h1M10,16h1M29,16h1M9,17h1M29,17h1M8,18h1M29,18h1M7,19h1M29,19h1M5,20h2M23,20h1M29,20h1M3,21h2M23,21h1M29,21h1M2,22h1M13,22h2M23,22h1M29,22h1M1,23h1M12,23h1M14,23h1M22,23h1M29,23h1M0,24h1M10,24h2M13,24h1M22,24h1M28,24h1M1,25h1M7,25h3M12,25h1M21,25h1M28,25h1M2,26h5M11,26h1M21,26h1M27,26h1M10,27h1M19,27h2M26,27h1M8,28h2M18,28h1M20,28h1M26,28h1M7,29h1M17,29h1M20,29h6M7,30h1M15,30h2M7,31h9"/><path stroke="#664033" d="M18,1h2M18,2h1M1,24h1M21,27h1M21,28h2M8,29h1M8,30h1"/><path stroke="#865342" d="M20,1h1M19,2h2M18,3h4M19,4h3M20,5h1M2,23h1M2,24h1M2,25h1M22,27h1M23,28h1M9,30h2"/><path stroke="#758e3d" d="M17,4h2M22,4h1M17,5h3M21,5h2M17,6h1M19,6h3M17,7h1M19,7h2M19,8h2M19,9h2M19,10h1M3,24h1M3,25h1M23,27h1M24,28h1M9,29h1M11,30h1"/><path stroke="#4b6d32" d="M23,5h1M18,6h1M22,6h1M18,7h1M21,7h1M18,8h1M21,8h1M18,9h1M21,9h1M18,10h1"/><path stroke="#ffe855" d="M23,6h2M24,7h1M17,8h1M17,9h1M23,9h1M25,9h1M17,10h1M20,10h3M24,10h1M16,11h2M20,11h3M24,11h1M26,11h1M16,12h2M20,12h3M24,12h3M15,13h3M20,13h4M25,13h3M14,14h3M19,14h5M25,14h3M13,15h4M19,15h5M26,15h2M12,16h4M18,16h5M26,16h2M11,17h4M17,17h6M26,17h2M10,18h5M17,18h6M26,18h2M9,19h5M16,19h6M26,19h2M8,20h5M16,20h6M26,20h2M7,21h5M16,21h6M25,21h3M3,22h7M15,22h6M25,22h3M3,23h5M15,23h6M23,23h5M4,24h1M14,24h6M23,24h4M13,25h7M22,25h5M12,26h7M22,26h4M11,27h7M24,27h1M10,28h7M10,29h5"/><path stroke="#e5ae33" d="M22,7h1M25,7h1M22,8h1M25,8h1M22,9h1M26,9h1M23,10h1M26,10h1M18,11h1M23,11h1M27,11h1M18,12h1M23,12h1M27,12h1M18,13h1M28,13h1M17,14h1M28,14h1M17,15h1M28,15h1M16,16h1M23,16h1M28,16h1M15,17h1M23,17h1M28,17h1M15,18h1M23,18h1M28,18h1M14,19h1M22,19h2M28,19h1M13,20h2M22,20h1M28,20h1M12,21h3M22,21h1M28,21h1M10,22h3M21,22h2M28,22h1M8,23h4M21,23h1M28,23h1M5,24h5M20,24h2M27,24h1M4,25h3M20,25h1M27,25h1M19,26h2M26,26h1M18,27h1M25,27h1M17,28h1M25,28h1M15,29h2M12,30h3"/><path stroke="#ffe5b5" d="M23,7h1M23,8h2M24,9h1M16,10h1M25,10h1M15,11h1M25,11h1M15,12h1M14,13h1M13,14h1M12,15h1M25,15h1M11,16h1M25,16h1M10,17h1M25,17h1M9,18h1M25,18h1M8,19h1M25,19h1M7,20h1M24,20h2M5,21h2M24,21h1M24,22h1"/><path stroke="#c08930" d="M19,11h1M19,12h1M19,13h1M24,13h1M18,14h1M24,14h1M18,15h1M24,15h1M17,16h1M24,16h1M16,17h1M24,17h1M16,18h1M24,18h1M15,19h1M24,19h1M15,20h1M15,21h1"/></svg>
