<svg xmlns="http://www.w3.org/2000/svg" shape-rendering="crispEdges" viewBox="0 -0.5 32 32" width="32" height="32"><metadata>Generated with pixel-perfect-svg https://github.com/kagof/pixel-perfect-svg</metadata><path stroke="#361a0a" d="M27,6h2M13,7h6M21,7h3M26,7h1M29,7h1M10,8h3M19,8h2M24,8h2M30,8h1M8,9h2M21,9h2M27,9h3M5,10h3M23,10h1M26,10h1M30,10h1M4,11h1M27,11h1M29,11h1M31,11h1M3,12h1M28,12h1M31,12h1M2,13h1M31,13h1M1,14h1M29,14h2M1,15h1M28,15h1M0,16h1M27,16h1M0,17h1M26,17h1M0,18h1M26,18h1M1,19h1M25,19h1M0,20h1M25,20h1M0,21h1M25,21h1M1,22h1M14,22h1M24,22h1M2,23h2M12,23h2M15,23h3M23,23h1M4,24h8M18,24h5"/><path stroke="#ed9e63" d="M27,7h2M26,8h1M11,10h2M9,11h2M30,11h1M8,12h1M29,12h1M7,13h1M19,13h3M18,14h2M17,15h2M16,16h1"/><path stroke="#c16930" d="M13,8h2M27,8h3M10,9h4M18,9h1M25,9h2M8,10h3M17,10h1M5,11h4M14,11h2M5,12h3M13,12h2M30,12h1M5,13h2M10,13h4M25,13h1M29,13h2M4,14h9M23,14h5M3,15h9M21,15h5M3,16h8M20,16h5M2,17h1M7,17h4M14,17h1M18,17h6M15,18h9M15,19h8M1,20h2M16,20h6M1,21h8M17,21h5M2,22h8M4,23h8"/><path stroke="#9e592a" d="M15,8h4M19,9h2M24,10h1M23,11h2M26,11h1M23,12h5M26,13h3M28,14h1M26,15h2M25,16h2M24,17h2M14,18h1M24,18h2M14,19h1M23,19h2M14,20h2M22,20h3M15,21h2M22,21h3M15,22h9M18,23h5"/><path stroke="#8c5129" d="M21,8h3M23,9h2M25,10h1M18,11h5M25,11h1M4,12h1M17,12h1M3,13h2M16,13h1M2,14h2M15,14h1M2,15h1M14,15h1M1,16h2M14,16h1M1,17h1M13,17h1M1,18h1M13,18h1M2,19h8M10,20h2M14,21h1M13,22h1"/><path stroke="#d47f3d" d="M14,9h4M13,10h4M11,11h3M9,12h4M18,12h5M8,13h2M17,13h2M22,13h3M16,14h2M15,15h2M15,16h1M15,17h1M3,20h7M9,21h3M10,22h3"/><path stroke="#af5a2d" d="M18,10h5M16,11h2M15,12h2M14,13h2M13,14h2M12,15h2M11,16h3M3,17h4M11,17h2M2,18h11M10,19h3M12,20h1M12,21h1"/><path stroke="#da7d42" d="M20,14h3M19,15h2M17,16h3M16,17h2"/><path stroke="#623f26" d="M13,19h1M13,20h1M13,21h1"/></svg>
