<svg xmlns="http://www.w3.org/2000/svg" shape-rendering="crispEdges" viewBox="0 -0.5 32 32" width="32" height="32"><metadata>Generated with pixel-perfect-svg https://github.com/kagof/pixel-perfect-svg</metadata><path stroke="#361a0a" d="M5,0h10M4,1h1M15,1h12M4,2h1M27,2h1M4,3h1M26,3h1M4,4h1M26,4h1M4,5h1M25,5h1M5,6h1M25,6h1M5,7h1M24,7h1M5,8h1M24,8h1M5,9h1M24,9h1M6,10h1M24,10h1M6,11h1M24,11h1M6,12h1M24,12h1M6,13h1M24,13h1M6,14h1M24,14h1M6,15h1M24,15h1M6,16h1M24,16h1M6,17h1M24,17h1M5,18h1M24,18h1M5,19h1M24,19h1M5,20h1M24,20h1M5,21h1M24,21h1M5,22h1M24,22h1M5,23h1M24,23h1M5,24h1M24,24h1M5,25h1M24,25h1M5,26h1M24,26h1M5,27h1M24,27h2M4,28h1M26,28h1M4,29h1M25,29h1M3,30h1M8,30h17M4,31h4"/><path stroke="#f7c444" d="M5,1h10M6,2h1M12,2h15M6,3h1M11,3h3M6,4h2M9,4h3M7,5h1M7,6h2M8,7h2M18,7h2M8,8h2M19,8h2M9,9h1M19,9h2M9,10h2M20,10h1M9,11h2M20,11h2M10,12h1M21,12h2M10,13h1M10,14h1M22,14h1M10,15h1M10,16h1M21,16h1M10,17h1M10,18h1M20,18h3M10,19h1M20,19h2M9,20h2M19,20h2M8,21h2M19,21h2M8,22h2M8,23h2M7,24h2M7,25h2M7,26h2M10,26h9M7,27h4M18,27h3M23,27h1M7,28h1M19,28h5"/><path stroke="#e5ae33" d="M5,2h1M5,3h1M22,3h4M5,4h1M18,4h8M5,5h2M23,5h2M6,6h1M19,6h4M24,6h1M6,7h2M20,7h4M6,8h2M21,8h3M6,9h3M21,9h3M7,10h2M21,10h3M7,11h2M22,11h2M8,12h2M23,12h1M23,13h1M9,14h1M23,14h1M9,15h1M23,15h1M9,16h1M23,16h1M23,17h1M6,18h2M9,18h1M23,18h1M6,19h3M22,19h2M6,20h3M22,20h2M6,21h2M22,21h2M6,22h2M22,22h2M6,23h2M22,23h2M6,24h1M22,24h2M6,25h1M22,25h2M6,26h1M22,26h2M6,27h1M22,27h1M5,28h2M12,28h6M24,28h2M5,29h2M8,29h17M4,30h4"/><path stroke="#ffe855" d="M7,2h5M7,3h4M14,3h8M8,4h1M12,4h6M8,5h6M15,5h2M9,6h1M12,6h3M16,6h1M10,7h2M10,8h5M17,8h2M10,9h4M16,9h3M11,10h2M15,10h5M11,11h2M14,11h4M19,11h1M11,12h1M13,12h4M19,12h2M14,13h1M20,13h1M12,14h1M18,14h1M20,14h1M14,15h1M16,15h1M20,15h1M12,16h1M14,16h1M16,16h1M18,16h3M12,17h1M14,17h1M16,17h1M18,17h3M11,18h9M11,19h5M17,19h3M11,20h2M18,20h1M21,20h1M10,21h2M21,21h1M10,22h1M20,22h2M10,23h1M20,23h2M9,24h2M20,24h2M9,25h3M19,25h3M9,26h1M19,26h3M21,27h1"/><path stroke="#fbf397" d="M14,5h1M10,6h2M15,6h1M17,6h2M12,7h6M15,8h2M14,9h2M13,10h2M13,11h1M18,11h1M12,12h1M17,12h2M12,13h1M16,13h1M14,14h1M16,14h1"/><path stroke="#cb8d35" d="M17,5h6M23,6h1M7,12h1M7,13h1M7,14h1M7,15h1M7,16h1M7,17h1M8,18h1M9,19h1M11,27h7M8,28h4M18,28h1M7,29h1"/><path stroke="#5f6c94" d="M8,13h1M11,13h1M17,13h2M21,13h1M8,14h1M13,15h1M18,15h2M13,16h1M13,17h1"/><path stroke="#7088af" d="M9,13h1M13,13h1M15,13h1M19,13h1M22,13h1M13,14h1M19,14h1"/><path stroke="#494f83" d="M11,14h1M15,14h1M17,14h1M21,14h1M8,15h1M11,15h2M15,15h1M17,15h1M21,15h2M8,16h1M11,16h1M15,16h1M17,16h1M22,16h1M8,17h2M11,17h1M15,17h1M17,17h1M21,17h2"/><path stroke="#758e3d" d="M16,19h1M14,20h1M16,20h1M14,21h1"/><path stroke="#eb2823" d="M13,20h1M15,20h1M12,21h1M15,21h2M11,22h1M16,22h2M11,23h1M15,23h3M11,24h2M15,24h3M12,25h5"/><path stroke="#d72128" d="M17,20h1M17,21h2M13,22h3M18,22h2M18,23h2M18,24h2M17,25h2"/><path stroke="#f25340" d="M13,21h1M12,22h1M12,23h3M13,24h2"/></svg>
