<svg xmlns="http://www.w3.org/2000/svg" shape-rendering="crispEdges" viewBox="0 -0.5 32 32" width="32" height="32"><metadata>Generated with pixel-perfect-svg https://github.com/kagof/pixel-perfect-svg</metadata><path stroke="#361a0a" d="M9,0h14M8,1h1M23,1h1M7,2h1M24,2h1M7,3h1M24,3h1M6,4h1M25,4h1M6,5h1M25,5h1M5,6h1M26,6h1M5,7h1M26,7h1M5,8h1M26,8h1M5,9h1M26,9h1M5,10h1M26,10h1M5,11h1M26,11h1M5,12h1M26,12h1M5,13h1M26,13h1M5,14h1M26,14h1M5,15h1M26,15h1M5,16h1M26,16h1M5,17h1M26,17h1M5,18h1M26,18h1M5,19h1M26,19h1M5,20h1M26,20h1M5,21h1M26,21h1M5,22h1M26,22h1M5,23h1M26,23h1M5,24h1M26,24h1M5,25h1M26,25h1M5,26h1M26,26h1M5,27h1M26,27h1M6,28h1M25,28h1M7,29h1M24,29h1M8,30h2M22,30h2M10,31h12"/><path stroke="#fffeff" d="M9,1h4M21,1h2M8,2h1M23,2h1M22,3h2M19,4h3M7,8h2M9,9h13M9,14h3M14,14h2M18,14h1M22,14h1M9,15h1M15,15h1M19,15h1M23,15h1M11,16h1M15,16h1M19,16h1M22,16h2M15,17h1M19,17h1M23,17h1M15,18h1M18,18h1M23,18h1"/><path stroke="#aac2d5" d="M13,1h2M16,1h1M13,2h1M15,2h3M19,2h2M9,3h5M18,3h4M10,4h2M14,4h5"/><path stroke="#828399" d="M15,1h1M17,1h4M9,2h4M14,2h1M18,2h1M21,2h2M8,3h1M14,3h4M12,4h2"/><path stroke="#d23841" d="M7,4h1M8,5h2M10,6h6M6,8h1M7,9h2M23,9h2M7,10h18M7,11h3M18,11h7M7,12h2M19,12h6M7,13h2M18,13h7M7,14h2M19,14h3M23,14h2M7,15h2M18,15h1M20,15h1M22,15h1M24,15h1M7,16h2M18,16h1M20,16h1M24,16h1M7,17h2M18,17h1M20,17h1M22,17h1M24,17h1M8,18h1M19,18h2M22,18h1M24,18h1M8,19h1M19,19h6M8,20h1M19,20h6M8,21h1M19,21h5M8,22h1M19,22h5M8,23h1M19,23h5M8,24h1M19,24h5M8,25h1M19,25h4M8,26h1M19,26h4M8,27h1M19,27h3M8,28h1M19,28h3M19,29h2M19,30h2"/><path stroke="#44455c" d="M8,4h2M22,4h2M10,5h12"/><path stroke="#b72d42" d="M24,4h1M22,5h2M16,6h6M25,8h1M25,9h1M25,10h1M25,11h1M25,12h1M25,13h1M25,14h1M25,15h1M25,16h1M25,17h1M7,18h1M25,18h1M7,19h1M25,19h1M7,20h1M25,20h1M7,21h1M24,21h2M7,22h1M24,22h2M7,23h1M24,23h2M7,24h1M24,24h2M7,25h1M23,25h3M7,26h1M23,26h3M7,27h1M22,27h4M7,28h1M22,28h3M8,29h1M21,29h3M21,30h1"/><path stroke="#ff876e" d="M7,5h1M6,6h1M24,6h1M6,7h1M21,7h2M24,7h1M19,8h5M6,9h1M22,9h1M6,10h1M6,11h1M12,11h1M6,12h1M12,12h1M6,13h1M6,14h1M6,15h1M6,16h1M6,17h1M6,18h1M6,19h1M6,20h1M9,20h1M13,20h1M6,21h1M9,21h1M13,21h1M6,22h1M9,22h1M11,22h1M13,22h1M6,23h1M9,23h1M11,23h1M13,23h1M6,24h1M9,24h2M13,24h1M6,25h1M9,25h2M13,25h1M6,26h1M9,26h2M12,26h1M6,27h1M9,27h2M12,27h1M9,28h2M12,28h1M9,29h1"/><path stroke="#ff5f56" d="M24,5h1M7,6h3M22,6h2M25,6h1M7,7h14M23,7h1M25,7h1M9,8h10M24,8h1M10,11h2M13,11h5M9,12h3M13,12h6M9,13h9M12,14h1M16,14h1M10,15h3M14,15h1M16,15h1M12,16h1M14,16h1M16,16h1M9,17h2M12,17h1M14,17h1M16,17h1M12,18h1M16,18h1M9,19h10M10,20h3M14,20h5M10,21h3M14,21h5M10,22h1M12,22h1M14,22h5M10,23h1M12,23h1M14,23h5M11,24h2M14,24h5M11,25h2M14,25h5M11,26h1M13,26h6M11,27h1M13,27h6M11,28h1M13,28h6M10,29h9M10,30h9"/><path stroke="#e4e3e4" d="M13,14h1M17,14h1M13,15h1M17,15h1M21,15h1M9,16h2M13,16h1M17,16h1M21,16h1M11,17h1M13,17h1M17,17h1M21,17h1M9,18h3M13,18h2M17,18h1M21,18h1"/></svg>
