<svg xmlns="http://www.w3.org/2000/svg" shape-rendering="crispEdges" viewBox="0 -0.5 32 32" width="32" height="32"><metadata>Generated with pixel-perfect-svg https://github.com/kagof/pixel-perfect-svg</metadata><path stroke="#361a0a" d="M12,4h11M8,5h4M23,5h2M6,6h2M25,6h1M5,7h1M26,7h1M4,8h1M26,8h1M3,9h1M26,9h1M3,10h1M25,10h2M3,11h1M25,11h1M3,12h1M25,12h1M4,13h2M25,13h1M6,14h1M25,14h1M6,15h1M26,15h1M6,16h1M26,16h1M7,17h1M26,17h1M7,18h1M27,18h1M7,19h1M27,19h1M8,20h1M28,20h1M8,21h1M28,21h1M8,22h1M28,22h1M8,23h1M27,23h1M8,24h1M22,24h5M9,25h1M16,25h6M10,26h6"/><path stroke="#c08c50" d="M12,5h11M8,6h5M22,6h3M6,7h3M24,7h2M5,8h3M25,8h1M5,9h2M24,9h2M6,10h1M6,11h1M24,13h1M8,14h1M24,14h1M8,15h1M8,16h1M25,17h1M9,18h1M25,18h1M9,19h2M26,19h1M10,20h1M10,21h1M10,22h1M10,23h2M11,24h1"/><path stroke="#f8d8a6" d="M13,6h9M9,7h15M8,8h17M8,9h15M8,10h1M10,10h13M8,11h3M13,11h2M16,11h1M19,11h2M22,11h1M9,12h2M12,12h11M10,13h3M14,13h2M17,13h2M20,13h2M11,14h3M15,14h3M23,14h1M12,15h1M19,15h1M19,16h1"/><path stroke="#b6723a" d="M4,9h1M4,10h2M4,11h2M24,12h1M25,15h1M7,16h1M25,16h1M8,17h1M8,18h1M26,18h1M8,19h1M9,20h1M9,21h1M9,22h1M9,23h1M9,24h2M10,25h2"/><path stroke="#d2a362" d="M7,9h1M7,10h1M7,11h1M8,12h1M9,13h1M9,14h1M9,15h1M9,16h1M9,17h1M10,18h1M11,20h1M25,20h1M11,21h1M22,21h3M11,22h1M16,22h6M12,23h4"/><path stroke="#ebbc8b" d="M23,9h1M9,10h1M11,11h2M15,11h1M17,11h2M21,11h1M23,11h1M11,12h1M23,12h1M13,13h1M16,13h1M19,13h1M22,13h2M10,14h1M14,14h1M18,14h5M10,15h2M13,15h6M23,15h2M10,16h1M12,16h3M16,16h1M18,16h1M21,16h2M24,16h1M10,17h3M14,17h11M11,18h9M21,18h4M11,19h4M16,19h4M21,19h1M23,19h3M13,20h2M17,20h1M19,20h6M12,21h2M15,21h7M12,22h2M15,22h1"/><path stroke="#67391f" d="M23,10h2M4,12h3M6,13h2M7,14h1M7,15h1"/><path stroke="#9a5b29" d="M24,11h1M7,12h1M8,13h1M26,20h2M25,21h2M22,22h4M16,23h6M12,24h4"/><path stroke="#d7a978" d="M20,15h3M11,16h1M15,16h1M17,16h1M20,16h1M23,16h1M13,17h1M20,18h1M15,19h1M20,19h1M22,19h1M12,20h1M15,20h2M18,20h1M14,21h1M14,22h1"/><path stroke="#844d21" d="M27,21h1M26,22h2M22,23h5M16,24h6M12,25h4"/></svg>
