<svg xmlns="http://www.w3.org/2000/svg" shape-rendering="crispEdges" viewBox="0 -0.5 32 32" width="32" height="32"><metadata>Generated with pixel-perfect-svg https://github.com/kagof/pixel-perfect-svg</metadata><path stroke="#361a0a" d="M14,0h5M11,1h3M19,1h3M9,2h2M22,2h1M8,3h1M23,3h1M7,4h1M24,4h1M7,5h1M25,5h1M7,6h1M25,6h1M6,7h1M26,7h1M6,8h1M26,8h1M5,9h1M26,9h1M5,10h1M26,10h1M5,11h1M26,11h1M5,12h1M26,12h1M5,13h1M26,13h1M5,14h1M25,14h1M6,15h1M25,15h1M6,16h1M24,16h1M7,17h1M23,17h1M8,18h2M21,18h2M10,19h2M17,19h4M12,20h3M16,20h1M14,21h1M16,21h1M14,22h1M16,22h1M14,23h1M16,23h1M14,24h1M16,24h1M14,25h1M16,25h1M14,26h1M16,26h1M14,27h1M16,27h1M14,28h1M16,28h1M14,29h1M16,29h1M14,30h1M16,30h1M14,31h1M16,31h1"/><path stroke="#c03234" d="M14,1h1M14,2h2M20,2h1M19,3h1M12,4h1M17,4h1M21,4h2M11,5h1M13,5h2M17,5h1M22,5h1M14,6h1M20,6h1M17,7h1M20,7h1M8,8h1M11,8h2M17,8h1M24,8h2M7,9h2M12,9h1M14,9h2M18,9h1M22,9h1M24,9h1M7,10h1M17,10h1M22,10h1M11,11h1M18,11h1M25,11h1M11,12h1M15,12h1M20,12h1M23,12h3M7,13h1M14,13h1M19,13h2M23,13h1M7,14h2M12,14h1M20,14h1M9,15h1M13,15h1M22,15h2M9,16h2M14,16h1M21,16h1M14,17h1M18,17h2M13,18h1M19,18h1"/><path stroke="#ffe855" d="M15,1h1M10,3h1M21,3h1M19,5h1M9,6h1M8,7h1M18,7h1M21,7h1M21,8h1M16,10h1M19,10h1M24,10h2M7,11h1M13,11h1M16,11h1M19,11h1M6,12h2M21,12h1M6,13h1M10,13h2M25,13h1M10,14h1M16,14h2M24,14h1M8,15h1M12,15h1M17,15h1M8,16h1M12,16h2M15,16h2M8,17h1M11,17h1M16,17h1M20,17h2M11,18h2M17,18h1M14,19h3"/><path stroke="#fdbe36" d="M16,1h1M16,2h2M21,2h1M9,3h1M11,3h1M20,3h1M13,4h3M15,5h2M18,5h1M24,5h1M11,6h3M19,6h1M23,6h2M7,7h1M12,7h2M15,7h2M23,7h1M7,8h1M15,8h2M10,9h2M25,9h1M9,10h4M14,10h1M14,11h1M21,11h2M24,11h1M13,12h2M16,13h3M15,14h1M18,14h2M23,14h1M18,15h3M24,15h1"/><path stroke="#d64f49" d="M17,1h2M11,2h3M18,2h2M22,3h1M8,4h3M16,4h1M18,4h1M23,4h1M8,5h2M12,5h1M20,5h1M23,5h1M8,6h1M21,6h1M10,7h2M24,7h2M10,8h1M14,8h1M18,8h2M22,8h1M6,9h1M19,9h1M21,9h1M6,10h1M21,10h1M6,11h1M9,11h2M17,11h1M9,12h2M9,13h1M13,13h1M15,13h1M21,13h1M24,13h1M6,14h1M11,14h1M14,14h1M21,14h1M7,15h1M11,15h1M7,16h1M22,16h2M9,17h2M15,17h1M17,17h1M22,17h1M10,18h1M18,18h1M20,18h1M12,19h2"/><path stroke="#53473c" d="M12,3h7M11,4h1M19,4h2M10,5h1M21,5h1M10,6h1M15,6h4M22,6h1M9,7h1M14,7h1M19,7h1M22,7h1M9,8h1M13,8h1M20,8h1M23,8h1M9,9h1M13,9h1M16,9h2M20,9h1M23,9h1M8,10h1M13,10h1M15,10h1M18,10h1M20,10h1M23,10h1M8,11h1M12,11h1M15,11h1M20,11h1M23,11h1M8,12h1M12,12h1M16,12h4M22,12h1M8,13h1M12,13h1M22,13h1M9,14h1M13,14h1M22,14h1M10,15h1M14,15h3M21,15h1M11,16h1M17,16h4M12,17h2M14,18h3"/><path stroke="#b1b1b1" d="M15,20h1M15,21h1M15,28h1M15,29h1M15,31h1"/><path stroke="#cdcdcd" d="M15,22h1M15,23h1M15,24h1M15,25h1M15,26h1M15,27h1M15,30h1"/></svg>
