<svg xmlns="http://www.w3.org/2000/svg" shape-rendering="crispEdges" viewBox="0 -0.5 32 32" width="32" height="32"><metadata>Generated with pixel-perfect-svg https://github.com/kagof/pixel-perfect-svg</metadata><path stroke="#361a0a" d="M6,1h21M5,2h1M25,2h2M5,3h1M25,3h2M4,4h1M27,4h1M4,5h1M28,5h1M3,6h1M28,6h1M3,7h1M28,7h1M3,8h1M28,8h1M2,9h1M28,9h1M2,10h1M28,10h1M2,11h1M28,11h1M2,12h1M28,12h1M2,13h1M28,13h1M2,14h1M28,14h1M2,15h1M28,15h1M2,16h1M28,16h1M2,17h1M28,17h1M2,18h1M28,18h1M2,19h1M28,19h1M2,20h1M28,20h1M2,21h1M28,21h1M2,22h1M28,22h1M2,23h1M28,23h1M2,24h1M28,24h1M2,25h1M28,25h1M2,26h1M28,26h1M2,27h1M28,27h1M2,28h1M26,28h2M2,29h1M24,29h2M2,30h1M22,30h2M3,31h19"/><path stroke="#ffe5b5" d="M6,2h19M6,3h19M5,4h1M5,5h19M4,8h19M3,9h19M3,10h19M3,11h19M3,12h19M3,28h19M3,29h19M3,30h19"/><path stroke="#cca989" d="M6,4h21M24,5h1M27,5h1M24,6h1M23,7h1M23,8h1M27,8h1M22,9h1M25,9h2M22,10h3M22,11h1M22,12h1M22,28h1M22,29h1"/><path stroke="#e2bf9f" d="M25,5h2M25,6h3M24,7h4M24,8h3M23,9h2"/><path stroke="#7992c0" d="M4,6h20M4,7h19M27,12h1M25,13h2M3,14h19M23,14h2M27,23h1M25,24h2M23,25h2M3,26h19"/><path stroke="#f3d0ab" d="M27,9h1M25,10h3M23,11h4M23,12h2M27,25h1M25,26h3M23,27h5M23,28h3M23,29h1"/><path stroke="#ece4ea" d="M27,11h1M25,12h2M17,13h5M23,13h2M27,13h1M25,14h3M23,15h3M27,15h1M23,16h1M25,16h1M27,16h1M23,17h1M25,17h1M27,17h1M23,18h1M25,18h3M23,19h3M27,19h1M23,20h1M26,20h2M23,21h5M23,22h2M27,22h1M23,23h1M25,23h2M23,24h2M27,24h1M7,25h15M25,25h2M23,26h2M4,27h3M8,27h14"/><path stroke="#fffeff" d="M3,13h14M3,15h19M3,16h19M3,17h1M9,17h1M13,17h1M15,17h3M19,17h1M21,17h1M3,18h1M5,18h1M7,18h1M9,18h2M12,18h2M15,18h3M19,18h1M21,18h1M3,19h1M5,19h1M7,19h1M9,19h2M12,19h2M15,19h3M19,19h1M21,19h1M3,20h1M5,20h1M7,20h1M9,20h2M12,20h2M15,20h3M20,20h2M3,21h1M5,21h1M7,21h1M9,21h2M12,21h2M15,21h3M19,21h1M21,21h1M3,22h1M5,22h1M7,22h1M9,22h2M12,22h2M15,22h3M19,22h1M21,22h1M3,23h1M5,23h1M7,23h1M9,23h1M13,23h1M17,23h1M19,23h1M21,23h1M3,24h19M3,25h4M3,27h1M7,27h1"/><path stroke="#d4c3d0" d="M22,13h1M22,15h1M22,16h1M22,17h1M22,18h1M22,19h1M22,20h1M22,21h1M22,22h1M22,23h1M22,24h1M22,25h1M22,27h1"/><path stroke="#6f82a7" d="M22,14h1M22,26h1"/><path stroke="#baadb8" d="M26,15h1M24,16h1M26,16h1M24,17h1M26,17h1M24,18h1M26,19h1M24,20h2M25,22h2M24,23h1"/><path stroke="#302720" d="M4,17h5M10,17h2M14,17h1M18,17h1M20,17h1M4,18h1M6,18h1M14,18h1M18,18h1M20,18h1M4,19h1M6,19h1M8,19h1M11,19h1M14,19h1M18,19h1M20,19h1M4,20h1M6,20h1M8,20h1M11,20h1M14,20h1M18,20h2M4,21h1M6,21h1M8,21h1M11,21h1M11,23h1"/><path stroke="#18120d" d="M12,17h1M8,18h1M11,18h1M14,21h1M18,21h1M20,21h1M4,22h1M6,22h1M8,22h1M11,22h1M14,22h1M18,22h1M20,22h1M4,23h1M6,23h1M8,23h1M10,23h1M12,23h1M14,23h3M18,23h1M20,23h1"/></svg>
