<svg xmlns="http://www.w3.org/2000/svg" shape-rendering="crispEdges" viewBox="0 -0.5 32 32" width="32" height="32"><metadata>Generated with pixel-perfect-svg https://github.com/kagof/pixel-perfect-svg</metadata><path stroke="#361a0a" d="M22,1h3M21,2h1M25,2h3M21,3h1M28,3h1M21,4h1M29,4h1M21,5h1M29,5h1M21,6h1M29,6h1M21,7h1M29,7h1M17,8h4M29,8h1M15,9h2M28,9h1M14,10h1M23,10h3M28,10h1M13,11h1M23,11h1M26,11h2M12,12h1M23,12h1M11,13h1M23,13h1M10,14h1M23,14h1M9,15h1M23,15h1M8,16h1M22,16h1M8,17h1M21,17h1M8,18h1M20,18h1M3,19h5M19,19h1M2,20h1M18,20h1M1,21h1M16,21h2M1,22h1M14,22h2M1,23h1M11,23h3M1,24h1M11,24h1M2,25h1M11,25h1M3,26h2M10,26h1M5,27h1M10,27h1M6,28h1M10,28h1M7,29h3"/><path stroke="#a7b54b" d="M22,2h1M25,3h3M24,4h3M28,4h1M24,5h2M27,5h2M26,6h2M24,7h2M28,8h1M26,9h2M26,10h2M2,21h4M10,21h1M2,22h1M10,22h1M2,23h1M6,23h4M3,24h6M3,25h5M5,26h3M6,27h1"/><path stroke="#758e3d" d="M23,2h1M22,3h1M24,3h1M23,4h1M27,4h1M23,5h1M26,5h1M23,6h3M22,7h2M28,7h1M22,8h1M26,8h2M23,9h3M3,20h7M6,22h4M3,23h3M2,24h1M10,24h1M8,25h1M10,25h1M9,26h1M7,27h1M9,27h1M8,28h2"/><path stroke="#4b6d32" d="M24,2h1M23,3h1M22,4h1M22,5h1M22,6h1M28,6h1M26,7h2M21,8h1M23,8h3M22,9h1M8,19h2M10,20h1M6,21h4M11,21h1M3,22h3M11,22h1M10,23h1M9,24h1M9,25h1M8,26h1M8,27h1M7,28h1"/><path stroke="#ff702f" d="M17,9h1M15,10h2M14,11h2M14,12h1M19,12h4M12,13h2M16,13h7M11,14h3M15,14h4M20,14h1M22,14h1M10,15h2M13,15h4M18,15h3M22,15h1M9,16h6M16,16h4M21,16h1M9,17h1M11,17h1M13,17h3M17,17h1M20,17h1M9,18h6M19,18h1M18,19h1M16,20h2M12,21h3M13,22h1"/><path stroke="#ffd06a" d="M18,9h1M20,11h1M15,18h1"/><path stroke="#ffb89c" d="M19,9h1M17,10h1"/><path stroke="#ffcf9e" d="M20,9h1"/><path stroke="#ffab89" d="M21,9h1M18,10h2M17,11h1M16,12h1M17,18h1M15,19h2M11,20h2M14,20h2"/><path stroke="#ff9468" d="M20,10h3M18,11h2M21,11h1M17,12h1M15,13h1M16,17h1M18,17h1M16,18h1M10,19h5"/><path stroke="#ffcfa6" d="M16,11h1"/><path stroke="#ffd22b" d="M22,11h1M13,12h1M18,12h1M14,14h1M19,14h1M12,15h1M17,15h1M15,16h1M10,17h1M12,17h1M15,21h1M12,22h1"/><path stroke="#ffc4ad" d="M15,12h1M14,13h1M17,19h1"/><path stroke="#ffcf97" d="M21,14h1M20,16h1"/><path stroke="#ffb395" d="M21,15h1M19,17h1"/><path stroke="#ffceae" d="M18,18h1"/><path stroke="#ffcf8b" d="M13,20h1"/></svg>
