<svg xmlns="http://www.w3.org/2000/svg" shape-rendering="crispEdges" viewBox="0 -0.5 32 32" width="32" height="32"><metadata>Generated with pixel-perfect-svg https://github.com/kagof/pixel-perfect-svg</metadata><path stroke="#361a0a" d="M11,0h4M10,1h1M15,1h6M6,2h1M9,2h1M21,2h2M5,3h1M7,3h2M23,3h2M4,4h1M25,4h2M4,5h1M27,5h1M5,6h1M27,6h1M5,7h1M28,7h1M30,7h1M4,8h1M29,8h1M31,8h1M3,9h1M31,9h1M3,10h1M31,10h1M2,11h1M30,11h1M2,12h1M30,12h1M2,13h1M29,13h1M1,14h1M29,14h1M1,15h1M29,15h1M1,16h1M29,16h1M1,17h1M29,17h1M1,18h1M29,18h1M1,19h1M29,19h1M1,20h1M29,20h1M1,21h1M28,21h1M1,22h1M26,22h2M1,23h1M24,23h2M1,24h1M22,24h2M1,25h1M20,25h2M1,26h1M18,26h2M1,27h1M15,27h3M1,28h1M13,28h2M2,29h1M11,29h2M2,30h1M9,30h2M3,31h6"/><path stroke="#ff331f" d="M11,1h2M15,2h1M16,3h1M18,3h1M18,4h2M7,5h1M13,5h2M7,6h2M13,6h2M8,7h2M14,7h2"/><path stroke="#cde164" d="M13,1h1M13,2h2M20,2h1M10,3h2M14,3h1M20,3h2M5,4h1M11,4h1M5,5h2M6,6h1M12,6h1M6,7h1M12,7h1M11,8h3M30,8h1M11,9h1M29,9h1M12,10h2"/><path stroke="#b4cc47" d="M14,1h1M10,2h2M17,2h3M6,3h1M9,3h1M22,3h1M6,4h5M12,4h1M14,4h3M21,4h1M24,4h1M10,5h3M16,5h1M16,6h2M13,7h1M16,7h1M6,8h1M10,8h1M15,8h1M7,9h2M10,9h1M30,9h1M10,10h2M14,10h1M30,10h1M13,11h1M29,12h1"/><path stroke="#99b838" d="M12,2h1M12,3h1M17,3h1M13,4h1M17,4h1M22,4h2M9,5h1M17,5h2M25,5h2M11,6h1M7,7h1M11,7h1M7,8h3M14,8h1M28,8h1M9,9h1M12,9h3M29,10h1M29,11h1"/><path stroke="#ff905f" d="M16,2h1M19,3h1M20,4h1M8,5h1M15,5h1M9,6h2M15,6h1M10,7h1"/><path stroke="#c6db54" d="M13,3h1M15,3h1"/><path stroke="#ffda7f" d="M19,5h6M18,6h1M17,7h1M16,8h1M15,9h1M15,10h1M14,11h1M13,12h1M12,13h1M12,14h1M11,15h1M11,16h1M11,17h1M11,18h1M11,19h1M11,20h1M10,21h1M10,22h1M9,23h1M9,24h1M8,25h1M8,26h1M8,27h1M7,28h1M7,29h1"/><path stroke="#f7c165" d="M19,6h3M23,6h4M18,7h2M26,7h2M27,8h1M28,9h1M28,10h1M28,11h1M28,12h1M13,13h1M21,13h1M13,14h1M21,14h1M12,15h1M20,15h1M12,16h1M20,16h1M12,17h1M20,17h1M12,18h1M20,18h1M12,19h1M20,19h1M12,20h1M20,20h1M20,23h2M18,24h2M15,25h3M13,26h2M7,30h1"/><path stroke="#e3b77f" d="M22,6h1M20,7h1M23,7h3M5,8h1M17,8h6M24,8h1M26,8h1M4,9h1M16,9h1M18,9h2M22,9h1M24,9h1M4,10h1M16,10h1M19,10h2M22,10h1M25,10h1M3,11h1M15,11h2M20,11h1M23,11h1M26,11h1M3,12h1M14,12h1M17,12h2M21,12h1M23,12h1M26,12h1M3,13h1M14,13h1M17,13h2M20,13h1M23,13h1M26,13h1M2,14h1M14,14h1M16,14h2M20,14h1M23,14h1M2,15h1M13,15h2M16,15h1M19,15h1M23,15h2M2,16h1M13,16h2M18,16h2M21,16h1M23,16h1M25,16h1M2,17h1M13,17h2M18,17h2M21,17h1M23,17h1M25,17h1M2,18h1M13,18h2M18,18h2M21,18h1M23,18h1M2,19h1M13,19h2M18,19h2M21,19h1M23,19h1M2,20h1M13,20h1M18,20h2M21,20h1M11,21h3M15,21h1M19,21h2M22,21h2M11,22h2M14,22h2M19,22h1M22,22h1M10,23h1M16,23h1M18,23h2M10,24h2M15,24h3M9,25h3M13,25h2M2,26h1M9,26h3M2,27h1M9,27h1M12,27h1M2,28h1M8,28h3M3,29h1M8,29h1M3,30h4"/><path stroke="#d8a773" d="M21,7h1M25,8h1M17,9h1M20,9h2M23,9h1M26,9h1M17,10h2M23,10h2M26,10h1M18,11h2M22,11h1M24,11h1M15,12h1M19,12h1M22,12h1M24,12h1M15,13h1M19,13h1M22,13h1M15,14h1M18,14h1M22,14h1M24,14h2M15,15h1M21,15h1M25,15h1M15,16h1M24,16h1M26,16h1M15,17h2M24,17h1M26,17h1M15,18h2M24,18h3M15,19h1M17,19h1M24,19h2M14,20h1M17,20h1M23,20h2M14,21h1M17,21h2M21,21h1M13,22h1M17,22h2M20,22h1M11,23h3M17,23h1M14,24h1M12,25h1M12,26h1M10,27h2"/><path stroke="#c79867" d="M22,7h1M23,8h1M25,9h1M21,10h1M17,11h1M21,11h1M25,11h1M16,12h1M20,12h1M25,12h1M16,13h1M24,13h2M19,14h1M26,14h1M17,15h2M22,15h1M26,15h1M16,16h2M22,16h1M17,17h1M22,17h1M17,18h1M22,18h1M16,19h1M22,19h1M15,20h2M22,20h1M16,21h1M16,22h1M21,22h1M14,23h2M12,24h2"/><path stroke="#e2a425" d="M5,9h2M5,10h1M8,10h1M4,11h1M6,11h1M8,11h1M10,11h1M12,11h1M4,12h1M7,12h1M9,12h2M12,12h1M4,13h2M7,13h3M11,13h1M6,14h2M10,14h2M5,15h1M8,15h2M7,16h1M10,16h1M7,17h1M9,17h2"/><path stroke="#c18e5a" d="M27,9h1M27,10h1M27,11h1M27,12h1M27,13h2M27,14h2M27,15h2M27,16h2M27,17h2M27,18h2M26,19h3M25,20h4M24,21h4M23,22h3M22,23h2M20,24h2M18,25h2M15,26h3M13,27h2M11,28h2M9,29h2M8,30h1"/><path stroke="#f5b639" d="M6,10h2M9,10h1M5,11h1M7,11h1M9,11h1M11,11h1M5,12h2M8,12h1M11,12h1M6,13h1M10,13h1M4,14h2M8,14h2M6,15h2M10,15h1M8,16h2M8,17h1"/><path stroke="#5a322e" d="M3,14h1M3,15h2M4,16h2M4,17h2M6,18h3M6,19h4M4,20h1M7,20h2M10,20h1M2,21h1M4,21h2M7,21h1M9,21h1M2,22h2M5,22h1M7,22h1M3,23h2M7,23h1M3,24h5M5,25h2M4,26h1M5,27h1M4,28h2"/><path stroke="#855045" d="M3,16h1M3,17h1M3,18h2M3,19h2M3,20h1M6,22h1M2,23h1M6,23h1M8,23h1M2,24h1M8,24h1M3,25h1M7,25h1M7,26h1M4,27h1M7,27h1M4,29h3"/><path stroke="#723e36" d="M6,16h1M6,17h1M5,18h1M9,18h2M5,19h1M10,19h1M5,20h2M9,20h1M3,21h1M6,21h1M8,21h1M4,22h1M8,22h2M5,23h1M2,25h1M4,25h1M3,26h1M5,26h2M3,27h1M6,27h1M3,28h1M6,28h1"/></svg>
