<svg xmlns="http://www.w3.org/2000/svg" shape-rendering="crispEdges" viewBox="0 -0.5 32 32" width="32" height="32"><metadata>Generated with pixel-perfect-svg https://github.com/kagof/pixel-perfect-svg</metadata><path stroke="#361a0a" d="M11,3h12M9,4h2M23,4h2M8,5h1M25,5h1M7,6h1M26,6h1M3,7h5M26,7h1M2,8h1M26,8h1M1,9h1M26,9h1M1,10h1M4,10h3M26,10h1M1,11h1M3,11h1M7,11h1M25,11h1M1,12h1M3,12h1M8,12h1M25,12h1M2,13h1M4,13h1M8,13h1M25,13h1M2,14h1M5,14h1M8,14h1M26,14h1M3,15h1M6,15h1M8,15h1M27,15h2M2,16h1M7,16h1M29,16h1M1,17h1M30,17h1M0,18h1M31,18h1M0,19h1M31,19h1M0,20h1M31,20h1M1,21h1M31,21h1M1,22h1M30,22h1M2,23h1M30,23h1M3,24h1M29,24h1M4,25h2M27,25h2M6,26h3M24,26h3M9,27h15"/><path stroke="#9260a7" d="M11,4h12M9,5h3M23,5h2M9,6h1M24,6h2M25,7h1M3,8h1M6,8h3M2,9h5M9,9h1M25,9h1M2,10h1M10,10h1M24,10h2M10,11h1M24,11h1M11,12h2M23,12h1M11,13h4M21,13h3M11,14h12M24,14h1M9,15h2M12,15h11M24,15h1M26,15h1M3,16h1M11,16h10M24,16h1M26,16h1M2,17h1M4,17h1M11,17h8M26,17h3M1,18h1M5,18h1M9,18h1M26,18h4M1,19h1M6,19h1M9,19h1M27,19h3M1,20h1M10,20h2M23,20h1M28,20h3M10,21h4M21,21h2M25,21h1M28,21h3M2,22h1M7,22h1M9,22h1M11,22h11M24,22h2M27,22h3M3,23h1M8,23h1M23,23h2M26,23h4M4,24h4M22,24h5M6,25h3M17,25h7M9,26h9"/><path stroke="#7c5690" d="M12,5h11M10,6h3M22,6h2M9,7h2M24,7h1M7,9h2M7,10h3M9,11h1M11,11h13M10,12h1M13,12h10M10,13h1M15,13h6M4,14h1M10,14h1M4,15h2M11,15h1M5,16h2M8,16h1M10,16h1M21,16h1M3,17h1M6,17h3M10,17h1M19,17h3M25,17h1M2,18h3M7,18h2M11,18h11M25,18h1M2,19h1M11,19h13M25,19h2M2,20h1M7,20h2M12,20h11M26,20h2M2,21h2M8,21h1M14,21h7M27,21h1M3,22h2M4,23h3M8,24h3M21,24h1M9,25h8"/><path stroke="#c88ddd" d="M8,6h1M8,7h1M5,8h1M9,8h1M10,9h1M3,10h1M18,10h6M2,11h1M8,11h1M2,12h1M9,12h1M24,12h1M3,13h1M9,13h1M24,13h1M3,14h1M9,14h1M22,16h1M22,17h2M22,18h2M4,20h1M5,21h1M6,22h1M26,22h1M7,23h1M9,23h2M25,23h1M13,24h1M28,24h1M26,25h1M18,26h1M22,26h2"/><path stroke="#36241b" d="M13,6h1M16,6h1M18,6h1M20,6h2M11,7h1M22,7h2M10,8h1M24,8h1"/><path stroke="#684d38" d="M14,6h1M19,6h1M12,7h1"/><path stroke="#d5c3b7" d="M15,6h1M17,6h1M16,7h1"/><path stroke="#1e130d" d="M13,7h3M17,7h2M13,8h9M15,9h9"/><path stroke="#150c07" d="M19,7h3M11,8h2M22,8h2M11,9h4"/><path stroke="#d9ace9" d="M4,8h1M25,8h1M24,9h1M11,10h7M23,14h1M23,15h1M23,16h1M27,16h2M29,17h1M30,18h1M3,19h1M30,19h1M3,20h1M25,20h1M4,21h1M26,21h1M5,22h1M11,24h2M27,24h1M24,25h2M19,26h3"/><path stroke="#483657" d="M25,14h1M25,15h1M9,16h1M9,17h1M24,21h1M23,22h1M22,23h1M14,24h7"/><path stroke="#604775" d="M4,16h1M5,17h1M24,17h1M6,18h1M10,18h1M24,18h1M7,19h2M10,19h1M24,19h1M9,20h1M24,20h1M9,21h1M23,21h1M10,22h1M22,22h1M11,23h1M20,23h2"/><path stroke="#4b395c" d="M25,16h1"/><path stroke="#684d77" d="M4,19h2M5,20h2M6,21h2M8,22h1"/><path stroke="#564267" d="M12,23h8"/></svg>
