<svg xmlns="http://www.w3.org/2000/svg" shape-rendering="crispEdges" viewBox="0 -0.5 32 32" width="32" height="32"><metadata>Generated with pixel-perfect-svg https://github.com/kagof/pixel-perfect-svg</metadata><path stroke="#361a0a" d="M14,6h9M13,7h1M23,7h2M13,8h1M25,8h2M12,9h1M27,9h2M10,10h2M29,10h1M8,11h2M30,11h1M6,12h2M31,12h1M4,13h2M31,13h1M2,14h2M30,14h1M1,15h1M29,15h1M0,16h1M29,16h1M0,17h1M28,17h1M0,18h1M28,18h1M0,19h1M28,19h1M0,20h1M28,20h1M0,21h1M28,21h1M0,22h1M22,22h6M0,23h1M16,23h6M0,24h1M8,24h8M1,25h7"/><path stroke="#d56317" d="M14,7h1M18,8h5M22,9h3M24,10h3M27,11h2M28,12h3M29,13h2M29,14h1"/><path stroke="#e68b37" d="M15,7h8M23,8h2M25,9h2M27,10h2M26,11h1M29,11h1M27,12h1M28,13h1"/><path stroke="#9c361c" d="M14,8h4M18,9h4M22,10h2M24,11h2M26,12h1M27,13h1"/><path stroke="#f38a3e" d="M13,9h5M18,10h4M22,11h2M24,12h2M26,13h1M1,16h8"/><path stroke="#ffc56f" d="M12,10h1M10,11h2M13,11h4M8,12h2M14,12h6M6,13h2M12,13h4M20,13h1M4,14h2M9,14h3"/><path stroke="#ffb35f" d="M13,10h5M12,11h1M17,11h2M10,12h4M20,12h2M8,13h4M16,13h4M21,13h3M6,14h3M12,14h11M2,15h12"/><path stroke="#ffa151" d="M19,11h3M22,12h2M24,13h2"/><path stroke="#e88845" d="M23,14h5M16,15h7M9,16h7M1,17h8"/><path stroke="#cd3c2d" d="M28,14h1M23,15h1M27,15h1M16,16h2M19,16h1M22,16h1M24,16h1M9,17h1M12,17h2M19,17h1M25,17h2M3,18h1M8,18h2M18,18h1M22,18h2M3,19h1M10,19h2M25,19h1M4,20h2M9,20h1M11,20h1M14,20h1M19,20h2M26,20h1M3,21h1M5,21h1M9,21h1M12,21h1M17,21h1M20,21h1M22,21h1M24,21h1M9,22h2M13,22h1M19,22h1M21,22h1M11,23h2M3,24h1M6,24h1"/><path stroke="#ffb265" d="M14,15h2"/><path stroke="#92211c" d="M24,15h1M21,16h1M25,16h1M10,17h1M18,17h1M24,17h1M4,18h1M6,18h1M10,18h1M21,18h1M6,19h1M9,19h1M12,19h2M15,19h2M18,19h2M27,19h1M1,20h1M7,20h1M13,20h1M16,20h1M25,20h1M13,21h1M16,21h1M19,21h1M23,21h1M27,21h1M1,22h1M8,22h1M11,22h1M14,22h2M17,22h1M20,22h1M2,23h2M6,23h1"/><path stroke="#ba2823" d="M25,15h2M28,16h1M14,17h1M16,17h1M21,17h1M27,17h1M7,18h1M13,18h2M20,18h1M26,18h2M2,19h1M7,19h2M17,19h1M21,19h2M15,20h1M17,20h2M22,20h1M1,21h2M6,21h2M14,21h2M18,21h1M2,22h1M5,22h2M4,23h1M2,24h1M4,24h2"/><path stroke="#7c1914" d="M28,15h1M18,16h1M26,16h2M22,17h2M5,18h1M17,18h1M25,18h1M4,19h1M20,19h1M24,19h1M2,20h2M8,20h1M10,20h1M24,20h1M8,21h1M10,21h1M7,22h1M9,23h2"/><path stroke="#e27265" d="M20,16h1M23,16h1M17,17h1M2,18h1M24,18h1M23,19h1M6,20h1M12,20h1M11,21h1M7,23h2M7,24h1"/><path stroke="#ee9287" d="M11,17h1M11,18h1M1,23h1"/><path stroke="#751712" d="M15,17h1M14,19h1"/><path stroke="#e88b84" d="M20,17h1M1,18h1"/><path stroke="#d86660" d="M12,18h1M16,18h1M19,18h1M1,19h1M23,20h1"/><path stroke="#681310" d="M15,18h1M26,19h1M21,20h1M27,20h1M4,21h1M21,21h1M25,21h2M3,22h2M12,22h1M16,22h1M18,22h1M5,23h1M13,23h3M1,24h1"/><path stroke="#f6a59b" d="M5,19h1"/></svg>
