<svg xmlns="http://www.w3.org/2000/svg" shape-rendering="crispEdges" viewBox="0 -0.5 32 32" width="32" height="32"><metadata>Generated with pixel-perfect-svg https://github.com/kagof/pixel-perfect-svg</metadata><path stroke="#361a0a" d="M11,5h10M8,6h3M21,6h3M6,7h2M24,7h2M4,8h2M26,8h2M3,9h1M28,9h1M2,10h1M29,10h1M1,11h1M30,11h1M0,12h1M31,12h1M0,13h1M31,13h1M0,14h1M31,14h1M0,15h1M31,15h1M0,16h1M31,16h1M0,17h1M31,17h1M1,18h1M30,18h1M1,19h1M30,19h1M2,20h1M29,20h1M2,21h1M29,21h1M3,22h1M28,22h1M3,23h1M28,23h1M4,24h1M27,24h1M5,25h2M25,25h2M7,26h2M23,26h2M9,27h4M19,27h4M13,28h6"/><path stroke="#ff8baf" d="M11,6h1M8,7h2M11,7h1M7,8h2M10,8h1M6,9h1M8,9h2M6,10h2M9,10h1M5,11h1M7,11h1M9,11h1M4,12h3M8,12h1M4,13h1M6,13h1M8,13h2M4,14h1M6,14h5M4,15h2M9,15h2M5,16h1M7,16h2M10,16h2M28,16h2M6,17h1M8,17h1M10,17h1M26,17h5M7,18h4M12,18h1M25,18h4M9,19h4M22,19h1M24,19h3M10,20h1M12,20h4M18,20h1M20,20h5M14,21h2M13,22h3M10,23h5"/><path stroke="#ffffff" d="M12,6h1M20,7h1M24,8h1M7,9h1M10,9h1M7,12h1M27,14h1M6,15h1M25,16h1M11,18h1M20,18h1M23,19h1"/><path stroke="#ff6a94" d="M13,6h2M16,6h2M20,6h1M12,7h2M15,7h1M17,7h3M21,7h3M12,8h1M14,8h3M20,8h2M23,8h1M25,8h1M11,9h5M22,9h6M10,10h2M13,10h6M22,10h2M26,10h3M10,11h4M18,11h2M24,11h3M28,11h2M10,12h2M19,12h2M24,12h1M26,12h1M30,12h1M10,13h1M20,13h2M23,13h3M20,14h3M24,14h1M12,15h9M22,15h2M25,15h2M12,16h1M14,16h9M24,16h1M26,16h1M12,17h1M14,17h1M16,17h2M19,17h2M22,17h2M25,17h1M13,18h4M18,18h2M21,18h4M13,19h1M16,19h3M20,19h1M16,20h1M16,21h1M16,22h1"/><path stroke="#e4202c" d="M15,6h1M18,6h1M11,8h1M22,8h1M8,10h1M12,10h1M24,10h1M9,12h1M25,12h1M7,13h1M7,15h1M21,15h1M24,15h1M13,16h1M9,17h1M18,17h1M15,19h1M21,19h1"/><path stroke="#e2e535" d="M19,6h1M10,7h1M16,7h1M13,8h1M21,9h1M25,10h1M8,11h1M23,11h1M5,14h1M23,14h1M8,15h1M11,15h1M6,16h1M23,16h1M27,16h1M13,17h1M17,18h1M11,20h1M17,20h1M19,20h1"/><path stroke="#40bcb5" d="M14,7h1M9,8h1M6,11h1M27,11h1M5,13h1M25,14h1M9,16h1M7,17h1M11,17h1M15,17h1M21,17h1M24,17h1M14,19h1M19,19h1"/><path stroke="#ffadc2" d="M6,8h1M17,8h3M4,9h2M19,9h2M3,10h3M20,10h2M2,11h2M21,11h2M1,12h2M22,12h2M1,13h1M3,13h1M22,13h1M1,14h1M3,14h1M1,15h1M1,16h1M1,17h2M2,18h1M2,19h2M3,20h3M4,21h4M13,21h1M6,22h7M9,23h1"/><path stroke="#ffbec9" d="M16,9h3M19,10h1M4,11h1M20,11h1M3,12h1M21,12h1M2,13h1M2,14h1M2,15h2M2,16h3M3,17h3M3,18h4M4,19h5M6,20h4M8,21h5"/><path stroke="#db3d71" d="M14,11h4M12,12h7M11,13h3M18,13h2M11,14h2M19,14h1"/><path stroke="#f64c87" d="M27,12h3M26,13h5M26,14h1M28,14h3M27,15h4M30,16h1M29,18h1M27,19h3M25,20h4M17,21h11M17,22h9M15,23h8"/><path stroke="#6a301b" d="M14,13h4M13,14h6"/><path stroke="#c77d39" d="M3,21h1M28,21h1M4,22h1M27,22h1M4,23h2M26,23h2M5,24h2M25,24h2M7,25h2M23,25h2M9,26h4M19,26h4M13,27h6"/><path stroke="#cb9757" d="M5,22h1M26,22h1M6,23h3M23,23h3M7,24h18M9,25h1M14,25h2M18,25h5M13,26h1M16,26h3"/><path stroke="#e1ab5b" d="M10,25h4M16,25h2M14,26h2"/></svg>
