<svg xmlns="http://www.w3.org/2000/svg" shape-rendering="crispEdges" viewBox="0 -0.5 32 32" width="32" height="32"><metadata>Generated with pixel-perfect-svg https://github.com/kagof/pixel-perfect-svg</metadata><path stroke="#361a0a" d="M21,3h2M19,4h2M23,4h2M17,5h2M25,5h2M15,6h2M27,6h2M13,7h2M29,7h2M11,8h2M31,8h1M9,9h2M31,9h1M7,10h2M31,10h1M5,11h2M31,11h1M3,12h2M31,12h1M0,13h3M31,13h1M0,14h1M31,14h1M0,15h1M31,15h1M1,16h1M31,16h1M2,17h1M31,17h1M2,18h1M31,18h1M1,19h1M31,19h1M0,20h1M31,20h1M0,21h1M31,21h1M0,22h1M31,22h1M1,23h1M26,23h5M1,24h1M17,24h9M0,25h1M11,25h6M0,26h1M6,26h5M1,27h5"/><path stroke="#fff56f" d="M21,4h2M20,5h5M22,6h5M24,7h5M28,8h3"/><path stroke="#ffe855" d="M19,5h1M17,6h5M15,7h1M20,7h1M13,8h2M20,8h1M24,8h4M11,9h6M18,9h2M24,9h5M14,10h11M7,11h2M12,11h5M5,12h8M3,13h3M28,13h1M27,14h2M25,15h3M6,16h1M11,16h1M6,17h1M6,18h5M18,18h1M23,18h1M7,19h3M19,19h4M20,20h2M16,21h1M25,21h4M4,23h1M7,23h1M12,23h4M5,24h2"/><path stroke="#fdbe36" d="M16,7h4M21,7h3M15,8h2M21,8h2M20,9h1M9,10h4M29,10h2M25,11h6M24,12h1M28,12h3M13,13h1M21,13h4M29,13h1M6,14h19M29,14h1M1,15h7M11,15h8M23,15h2M28,15h2M2,16h4M12,16h6M24,16h6M3,17h3M11,17h7M24,17h6M3,18h3M11,18h7M25,18h5M2,19h5M10,19h9M25,19h1M28,19h1M1,20h13M16,20h4M24,20h1M3,21h9M17,21h4M23,21h2M3,22h1M7,22h2M11,22h1M16,22h2M19,22h6M30,22h1M8,23h2M16,23h1M4,24h1M7,24h2M16,24h1M5,25h2"/><path stroke="#d29b1f" d="M17,8h3M23,8h1M17,9h1M21,9h3M29,9h2M13,10h1M25,10h4M9,11h3M17,11h8M13,12h6M25,12h3M6,13h7M25,13h3M1,14h5M25,14h2M8,15h3M19,15h4M7,16h4M18,16h6M7,17h4M18,17h6M19,18h4M26,19h2M14,20h2M25,20h4M12,21h4M4,22h3M12,22h4M5,23h2"/><path stroke="#f0b228" d="M19,12h5M14,13h7M30,13h1M30,14h1M30,15h1M30,16h1M30,17h1M24,18h1M30,18h1M23,19h2M29,19h2M22,20h2M29,20h2M1,21h2M21,21h2M29,21h2M1,22h2M9,22h2M18,22h1M25,22h5M2,23h2M10,23h2M17,23h9M2,24h2M9,24h7M1,25h4M7,25h4M1,26h5"/></svg>
