<svg xmlns="http://www.w3.org/2000/svg" shape-rendering="crispEdges" viewBox="0 -0.5 32 32" width="32" height="32"><metadata>Generated with pixel-perfect-svg https://github.com/kagof/pixel-perfect-svg</metadata><path stroke="#361a0a" d="M11,4h13M8,5h3M24,5h3M6,6h2M27,6h1M5,7h1M28,7h1M4,8h1M29,8h1M3,9h1M29,9h1M3,10h1M30,10h1M2,11h1M30,11h1M2,12h1M30,12h1M2,13h1M30,13h1M1,14h1M31,14h1M1,15h1M31,15h1M0,16h1M31,16h1M0,17h1M31,17h1M0,18h1M31,18h1M1,19h1M31,19h1M1,20h1M30,20h1M1,21h1M30,21h1M2,22h1M30,22h1M3,23h1M30,23h1M3,24h1M30,24h1M4,25h1M29,25h1M5,26h1M28,26h1M6,27h1M26,27h2M7,28h3M23,28h3M10,29h13"/><path stroke="#eeb96c" d="M11,5h7M8,6h3M6,25h2M9,26h13"/><path stroke="#dda24a" d="M18,5h6M11,6h7M19,6h3M23,6h1M9,7h2M12,7h3M16,7h7M11,8h9M3,12h2M28,12h2M4,13h4M23,13h1M25,13h3M6,14h1M8,14h7M17,14h6"/><path stroke="#f5e9c7" d="M18,6h1M22,6h1M11,7h1M15,7h1M7,9h1M21,9h1M26,9h1M11,10h1M5,11h1M15,11h1M9,12h1M19,12h1M24,13h1M7,14h1M16,14h1"/><path stroke="#cc863c" d="M24,6h1M8,7h1M23,7h3M7,8h4M20,8h7M8,9h13M22,9h4M27,9h1M7,10h4M12,10h16M6,11h9M16,11h13M6,12h3M10,12h9M20,12h8M8,13h15M15,14h1M28,23h1M4,24h1M27,24h2M5,25h1M23,25h5M6,26h3M22,26h4M7,27h16M10,28h6"/><path stroke="#b8702f" d="M25,6h2M6,7h2M26,7h2M5,8h2M27,8h2M4,9h3M28,9h1M4,10h3M28,10h2M3,11h2M29,11h1M5,12h1M3,13h1M28,13h2M4,14h2M23,14h5M6,15h17M29,23h1M29,24h1M28,25h1M26,26h2M23,27h3M16,28h7"/><path stroke="#ffe855" d="M2,14h2M28,14h3M2,15h4M23,15h8M1,16h28M1,17h2M10,17h17"/><path stroke="#758e3d" d="M29,16h1M28,17h1M30,17h1M6,18h2M10,18h5M28,18h1M8,19h2M15,19h4M27,19h1M29,19h1M9,20h2M13,20h1M18,20h7M27,20h2M12,21h1M14,21h2M24,21h1M26,21h1M6,22h1M12,22h1M16,22h1M23,22h1M7,23h1"/><path stroke="#8fb536" d="M30,16h1M9,18h1M30,18h1M4,19h1M12,19h3M30,19h1M4,20h1M6,20h1M16,20h2M29,20h1M7,21h2M10,21h2M13,21h1M18,21h1M22,21h1M27,21h2M7,22h1M9,22h3M13,22h3M17,22h1M24,22h1M9,23h1"/><path stroke="#c41f1b" d="M3,17h7M27,17h1M1,18h5M15,18h13M19,19h8"/><path stroke="#bfcb69" d="M29,17h1M29,18h1M6,19h2M10,19h1M28,19h1M7,20h2M11,20h1M14,20h2M26,20h1M16,21h1M20,21h2M25,21h1M21,22h2"/><path stroke="#e2eca3" d="M8,18h1M5,19h1M11,19h1M5,20h1M12,20h1M25,20h1M6,21h1M9,21h1M17,21h1M19,21h1M23,21h1M8,22h1M8,23h1"/><path stroke="#69251a" d="M2,19h2M3,20h1M4,21h2M29,21h1M18,22h3M25,22h4M6,23h1M10,23h8M21,23h4"/><path stroke="#7d3520" d="M2,20h1M2,21h1M3,22h1M29,22h1M4,23h1M18,23h2M25,23h1M27,23h1M5,24h7M18,24h3M24,24h3M8,25h10M19,25h4"/><path stroke="#9e5638" d="M3,21h1M4,22h2M5,23h1M20,23h1M26,23h1M12,24h6M21,24h3M18,25h1"/></svg>
